<svg width="18" height="18" viewBox="0 0 18 18" fill="none" xmlns="http://www.w3.org/2000/svg">
<rect x="8.25012" y="4.5" width="1.5" height="9" rx="0.75" fill="#DFDFDF"/>
<rect x="13.5001" y="8.25" width="1.5" height="9" rx="0.75" transform="rotate(90 13.5001 8.25)" fill="#DFDFDF"/>
<path d="M11.5001 2C11.5001 1.72386 11.724 1.5 12.0001 1.5H15.5001C16.0524 1.5 16.5001 1.94772 16.5001 2.5V6C16.5001 6.27614 16.2763 6.5 16.0001 6.5C15.724 6.5 15.5001 6.27614 15.5001 6V3.5C15.5001 2.94772 15.0524 2.5 14.5001 2.5H12.0001C11.724 2.5 11.5001 2.27614 11.5001 2Z" fill="#DFDFDF"/>
<path d="M6.50012 16C6.50012 16.2761 6.27626 16.5 6.00012 16.5H2.50012C1.94784 16.5 1.50012 16.0523 1.50012 15.5L1.50012 12C1.50012 11.7239 1.72398 11.5 2.00012 11.5C2.27626 11.5 2.50012 11.7239 2.50012 12L2.50012 14.5C2.50012 15.0523 2.94784 15.5 3.50012 15.5L6.00012 15.5C6.27626 15.5 6.50012 15.7239 6.50012 16Z" fill="#DFDFDF"/>
<path d="M2.00012 6.5C1.72398 6.5 1.50012 6.27614 1.50012 6L1.50012 2.5C1.50012 1.94772 1.94784 1.5 2.50012 1.5L6.00012 1.5C6.27626 1.5 6.50012 1.72386 6.50012 2C6.50012 2.27614 6.27626 2.5 6.00012 2.5L3.50012 2.5C2.94784 2.5 2.50012 2.94772 2.50012 3.5L2.50012 6C2.50012 6.27614 2.27626 6.5 2.00012 6.5Z" fill="#DFDFDF"/>
<path d="M16.0001 11.5C16.2763 11.5 16.5001 11.7239 16.5001 12V15.5C16.5001 16.0523 16.0524 16.5 15.5001 16.5H12.0001C11.724 16.5 11.5001 16.2761 11.5001 16C11.5001 15.7239 11.724 15.5 12.0001 15.5H14.5001C15.0524 15.5 15.5001 15.0523 15.5001 14.5V12C15.5001 11.7239 15.724 11.5 16.0001 11.5Z" fill="#DFDFDF"/>
</svg>
