<svg width="24" height="24" viewBox="0 0 24 24" fill="none" xmlns="http://www.w3.org/2000/svg">
<g clip-path="url(#clip0_277_3416)">
<path d="M21.6343 19.871L17.7634 15.9984C20.6598 12.1278 19.87 6.64195 15.9994 3.74551C12.1288 0.84908 6.64292 1.63884 3.74649 5.50949C0.850057 9.38013 1.63982 14.866 5.51046 17.7624C8.61969 20.0891 12.8901 20.0891 15.9994 17.7624L19.872 21.635C20.3587 22.1216 21.1477 22.1216 21.6343 21.635C22.121 21.1483 22.121 20.3593 21.6343 19.8727L21.6343 19.871ZM10.7872 17.015C7.34716 17.015 4.55848 14.2263 4.55848 10.7862C4.55848 7.34618 7.34716 4.55751 10.7872 4.55751C14.2273 4.55751 17.0159 7.34618 17.0159 10.7862C17.0123 14.2247 14.2257 17.0113 10.7872 17.015Z" fill="#6B83E1"/>
</g>
<circle cx="10.75" cy="10.75" r="6.25" fill="#6B83E1" fill-opacity="0.3"/>
<defs>
<clipPath id="clip0_277_3416">
<rect width="20" height="20" fill="white" transform="translate(2 2)"/>
</clipPath>
</defs>
</svg>
