<svg width="22" height="17" viewBox="0 0 22 17" fill="none" xmlns="http://www.w3.org/2000/svg">
<path d="M10.0835 9.98026L7.53787 16.4605C7.36703 16.9016 6.8613 17.1115 6.43631 16.9407C5.99857 16.769 5.78353 16.276 5.95607 15.8391L7.84642 11.0266C8.57144 10.6092 9.26502 9.98536 9.9297 9.58758L10.0844 9.98026H10.0835ZM20.9309 3.33772C20.6479 2.88893 20.1829 2.60334 19.6551 2.55405C18.5025 2.4784 18.0215 2.2523 17.1562 1.44568C16.6062 0.973094 16.0376 0.484359 15.3865 0.246366C14.8774 0.060222 14.2663 -0.0188255 13.5565 0.00497381C12.9131 0.029623 12.336 0.334763 11.9586 0.809049C11.9611 0.815849 15.4996 9.81877 15.4996 9.81877C15.9543 10.0398 16.4286 10.1358 16.9717 10.1945C17.9688 10.2837 18.936 9.72952 19.35 8.7937L21.0924 4.84387C21.2777 4.34069 21.2182 3.79161 20.9326 3.33857L20.9309 3.33772ZM15.5574 16.9407C15.9951 16.769 16.2102 16.276 16.0376 15.8391L10.3683 1.40658C10.0716 0.588056 9.31432 0.0381228 8.43715 0.00412389C7.73677 -0.0196754 7.11714 0.0593721 6.608 0.245516C5.95692 0.483509 5.38829 0.972244 4.83836 1.44483C3.97223 2.25145 3.492 2.47755 2.33859 2.5532C1.8116 2.60249 1.34667 2.88808 1.06362 3.33687C0.777184 3.79076 0.718535 4.33899 0.923379 4.89317L2.64543 8.79285C3.05936 9.72867 4.01303 10.2914 5.02365 10.1936C5.46989 10.1503 5.88638 10.0593 6.26036 9.92332C6.89104 9.69297 7.47923 9.25184 8.04871 8.826C8.51959 8.47326 9.00578 8.10947 9.40017 7.96498C9.9195 7.77458 10.6573 7.82303 11.0882 7.88508L14.4567 16.4596C14.6275 16.9008 15.1332 17.1107 15.5582 16.9398L15.5574 16.9407Z" fill="#6B83E1"/>
</svg>
