<svg width="24" height="24" viewBox="0 0 24 24" fill="current" xmlns="http://www.w3.org/2000/svg">
<g clip-path="url(#clip0_206_12004)">
<path d="M18.3638 3.51472L11.9999 9.87868L5.6359 3.51472C5.05012 2.92894 4.10036 2.92894 3.51458 3.51472C2.9288 4.1005 2.9288 5.05026 3.51458 5.63604L9.87854 12L3.51458 18.364C2.9288 18.9497 2.9288 19.8995 3.51458 20.4853C4.10036 21.0711 5.05012 21.0711 5.6359 20.4853L11.9999 14.1213L18.3638 20.4853C18.9496 21.0711 19.8994 21.0711 20.4851 20.4853C21.0709 19.8995 21.0709 18.9497 20.4851 18.364L14.1212 12L20.4851 5.63604C21.0709 5.05026 21.0709 4.1005 20.4851 3.51472C19.8994 2.92894 18.9496 2.92894 18.3638 3.51472Z" fill="#DFDFDF"/>
</g>
<defs>
<clipPath id="clip0_206_12004">
<rect width="24" height="24" fill="current" transform="translate(-4.9707 12) rotate(-45)"/>
</clipPath>
</defs>
</svg>
