<svg width="20" height="20" viewBox="0 0 20 20" fill="none" xmlns="http://www.w3.org/2000/svg">
<g clip-path="url(#clip0_201_576)">
<path fill-rule="evenodd" clip-rule="evenodd" d="M10.7474 3.18251V4.63933C10.7474 4.83252 10.8242 5.01779 10.961 5.15439C11.0977 5.291 11.2832 5.36774 11.4766 5.36774C11.6699 5.36774 11.8554 5.291 11.9922 5.15439C12.1289 5.01779 12.2057 4.83252 12.2057 4.63933V3.18251C12.2057 2.98933 12.1289 2.80405 11.9922 2.66745C11.8554 2.53084 11.6699 2.4541 11.4766 2.4541C11.2832 2.4541 11.0977 2.53084 10.961 2.66745C10.8242 2.80405 10.7474 2.98933 10.7474 3.18251ZM9.0755 5.15439C8.93875 5.291 8.75328 5.36774 8.5599 5.36774C8.36651 5.36774 8.18104 5.291 8.0443 5.15439C7.90755 5.01779 7.83073 4.83252 7.83073 4.63933V3.18251C7.83073 2.98933 7.90755 2.80405 8.0443 2.66745C8.18104 2.53084 8.36651 2.4541 8.5599 2.4541C8.75328 2.4541 8.93875 2.53084 9.0755 2.66745C9.21224 2.80405 9.28906 2.98933 9.28906 3.18251V4.63933C9.28906 4.83252 9.21224 5.01779 9.0755 5.15439ZM6.15883 5.15439C6.02208 5.291 5.83662 5.36774 5.64323 5.36774C5.44984 5.36774 5.26438 5.291 5.12763 5.15439C4.99089 5.01779 4.91406 4.83252 4.91406 4.63933V3.18251C4.91406 2.98933 4.99089 2.80405 5.12763 2.66745C5.26438 2.53084 5.44984 2.4541 5.64323 2.4541C5.83662 2.4541 6.02208 2.53084 6.15883 2.66745C6.29557 2.80405 6.3724 2.98933 6.3724 3.18251V4.63933C6.3724 4.83252 6.29557 5.01779 6.15883 5.15439ZM17.8631 14.0243C18.4079 13.4996 18.7261 12.7832 18.75 12.0276C18.75 10.6159 17.5491 9.7382 15.7473 9.7382C15.8484 9.4057 15.8713 9.05437 15.8143 8.71157C15.7573 8.36877 15.6218 8.04374 15.4185 7.7618C15.2151 7.47985 14.9494 7.24859 14.6419 7.08603C14.3344 6.92347 13.9936 6.83399 13.6458 6.82456H3.4375C-0.538646 7.0948 1.97333 13.1275 3.00583 14.773C3.46742 15.4715 4.09687 16.0433 4.83666 16.4363C5.57646 16.8292 6.40302 17.0307 7.24083 17.0223H9.84177C10.6657 17.0298 11.4787 16.8344 12.209 16.4532C12.9393 16.0721 13.5643 15.517 14.0286 14.8371H15.8333C16.5901 14.8407 17.3183 14.5491 17.8631 14.0243ZM15.4994 11.195C16.3802 11.136 17.3558 11.3524 17.2917 12.0276C17.268 12.3966 17.1036 12.7426 16.8323 12.9942C16.561 13.2458 16.2035 13.384 15.8333 13.3803H14.8038C15.1035 12.6752 15.3364 11.9436 15.4994 11.195Z" fill="#DFDFDF"/>
</g>
<defs>
<clipPath id="clip0_201_576">
<rect width="17.5" height="15.0917" fill="white" transform="translate(1.25 2.4541)"/>
</clipPath>
</defs>
</svg>
