<svg width="11" height="8" viewBox="0 0 11 8" fill="none" xmlns="http://www.w3.org/2000/svg">
<path d="M1.02759 0.579762C1.11617 0.434021 1.24407 0.313231 1.39816 0.229779C1.55225 0.146327 1.727 0.103214 1.90447 0.104864L9.09464 0.104864C9.27211 0.103214 9.44686 0.146327 9.60095 0.229779C9.75504 0.313231 9.88294 0.434021 9.97152 0.579762C10.058 0.719965 10.1035 0.879424 10.1035 1.0418C10.1035 1.20418 10.058 1.36364 9.97152 1.50384L6.37726 7.42039C6.28742 7.56535 6.15917 7.68553 6.00521 7.76904C5.85126 7.85255 5.67695 7.89648 5.49956 7.89648C5.32216 7.89648 5.14785 7.85255 4.9939 7.76904C4.83994 7.68553 4.71169 7.56535 4.62185 7.42039L1.02677 1.50384C0.940451 1.36357 0.895039 1.20408 0.895184 1.0417C0.895328 0.879318 0.941024 0.719895 1.02759 0.579762Z" fill="#3E3E3E"/>
</svg>
