<svg width="16" height="16" viewBox="0 0 16 16" fill="none" xmlns="http://www.w3.org/2000/svg">
<path d="M10.0247 15.9987C9.336 15.9987 8.64667 15.7367 8.122 15.212C7.61333 14.704 7.33333 14.028 7.33333 13.3087C7.33333 12.5893 7.61333 11.914 8.122 11.4053L10.9307 8.59733C11.1913 8.33667 11.6127 8.33667 11.8733 8.59733C12.134 8.858 12.134 9.27933 11.8733 9.54L9.06467 12.348C8.808 12.6047 8.66667 12.946 8.66667 13.3087C8.66667 13.6713 8.808 14.0127 9.06467 14.2693C9.59533 14.7987 10.4567 14.798 10.986 14.2693L14.566 10.6893C14.7007 10.5547 14.7007 10.3347 14.566 10.2C14.436 10.07 14.208 10.0693 14.0767 10.2L11.1387 13.138C10.878 13.3987 10.4567 13.3987 10.196 13.138C9.93533 12.8773 9.93533 12.456 10.196 12.1953L13.134 9.25733C13.768 8.624 14.8733 8.62267 15.5087 9.25733C16.1627 9.912 16.1627 10.978 15.5087 11.632L11.9287 15.212C11.404 15.7367 10.7147 15.9987 10.0253 15.9987H10.0247ZM6.44 8.26933C6.1 8.09067 5.79667 7.84467 5.52533 7.57333L0.197333 2.24467C0.078 2.58733 0 2.95 0 3.33333V9.33333C0 11.174 1.49267 12.6667 3.33333 12.6667H6.05533C6.188 11.836 6.57267 11.0687 7.17933 10.462L9.20533 8.436C8.36667 8.76133 7.40267 8.77333 6.44067 8.26933H6.44ZM15.8027 2.24467C15.922 2.58733 16 2.95 16 3.33333V7.95333C15.1173 7.36867 13.9687 7.292 13.0193 7.73467L12.942 7.808C12.9 7.75667 12.8627 7.70133 12.8153 7.654C12.2987 7.13733 11.57 6.97067 10.9093 7.138L15.8027 2.24467ZM15.0967 1.06533L9.414 6.748C9.036 7.12533 8.518 7.314 7.99933 7.31467C7.48133 7.31467 6.96267 7.126 6.58467 6.748L0.903333 1.06467C1.512 0.413333 2.37133 0 3.33333 0H12.6667C13.6287 0 14.4887 0.413333 15.0967 1.06467V1.06533Z" fill="#DFDFDF"/>
</svg>
