<svg width="16" height="16" viewBox="0 0 16 16" fill="none" xmlns="http://www.w3.org/2000/svg">
    <g clip-path="url(#clip0_206_8696)">
    <path d="M1.12578 3.46921H2.83561C3.17308 4.71086 4.4532 5.44385 5.69485 5.10639C6.49232 4.88964 7.11528 4.26667 7.33203 3.46921H14.8744C15.2195 3.46921 15.4993 3.18942 15.4993 2.84428C15.4993 2.49914 15.2195 2.21935 14.8744 2.21935H7.33203C6.99456 0.977667 5.71445 0.244673 4.47279 0.58214C3.67532 0.798886 3.05236 1.42185 2.83561 2.21932H1.12578C0.780641 2.21932 0.500854 2.49911 0.500854 2.84425C0.500854 3.18939 0.780641 3.46921 1.12578 3.46921Z" fill="#DFDFDF"/>
    <path d="M14.8744 7.37521H13.1646C12.8278 6.13373 11.5484 5.40033 10.3069 5.73709C9.50878 5.9536 8.88528 6.57707 8.66877 7.37521H1.12578C0.780641 7.37521 0.500854 7.655 0.500854 8.00014C0.500854 8.34528 0.780641 8.62507 1.12578 8.62507H8.66877C9.00556 9.86654 10.285 10.5999 11.5265 10.2632C12.3246 10.0467 12.9481 9.42321 13.1646 8.62507H14.8744C15.2195 8.62507 15.4993 8.34528 15.4993 8.00014C15.4993 7.655 15.2195 7.37521 14.8744 7.37521Z" fill="#DFDFDF"/>
    <path d="M14.8744 12.5308H7.33203C6.99456 11.2892 5.71445 10.5562 4.47279 10.8937C3.67532 11.1104 3.05236 11.7334 2.83561 12.5308H1.12578C0.780641 12.5308 0.500854 12.8106 0.500854 13.1558C0.500854 13.5009 0.780641 13.7807 1.12578 13.7807H2.83561C3.17308 15.0223 4.4532 15.7553 5.69485 15.4179C6.49232 15.2011 7.11528 14.5782 7.33203 13.7807H14.8744C15.2195 13.7807 15.4993 13.5009 15.4993 13.1558C15.4993 12.8106 15.2195 12.5308 14.8744 12.5308Z" fill="#DFDFDF"/>
    </g>
    <defs>
    <clipPath id="clip0_206_8696">
    <rect width="15" height="15" fill="none" transform="translate(0.5 0.5)"/>
    </clipPath>
    </defs>
    </svg>
    