<svg width="24" height="24" viewBox="0 0 24 24" fill="none" xmlns="http://www.w3.org/2000/svg">
<g clip-path="url(#clip0_138_1626)">
<path d="M21.6343 19.8713L17.7634 15.9987C20.6598 12.128 19.87 6.64219 15.9994 3.74576C12.1288 0.849324 6.64292 1.63909 3.74649 5.50973C0.850057 9.38038 1.63982 14.8662 5.51046 17.7626C8.61969 20.0893 12.8901 20.0893 15.9994 17.7626L19.872 21.6352C20.3587 22.1219 21.1477 22.1219 21.6343 21.6352C22.121 21.1486 22.121 20.3596 21.6343 19.8729L21.6343 19.8713ZM10.7872 17.0152C7.34716 17.0152 4.55848 14.2265 4.55848 10.7865C4.55848 7.34643 7.34716 4.55775 10.7872 4.55775C14.2273 4.55775 17.0159 7.34643 17.0159 10.7865C17.0123 14.225 14.2257 17.0115 10.7872 17.0152Z" fill="#DFDFDF"/>
</g>
<circle cx="10.75" cy="10.75" r="6.25" fill="#DFDFDF" fill-opacity="0.3"/>
<defs>
<clipPath id="clip0_138_1626">
<rect width="20" height="20" fill="white" transform="translate(2 2)"/>
</clipPath>
</defs>
</svg>
