<svg width="20" height="16" viewBox="0 0 20 16" fill="none" xmlns="http://www.w3.org/2000/svg">
<path d="M8.97375 9.02615L9.12205 9.3956L6.68158 15.4924C6.5178 15.9074 6.03296 16.1049 5.62554 15.9442C5.20589 15.7827 4.99974 15.3189 5.16515 14.9078L6.97737 10.38C7.67243 9.98737 8.33654 9.4004 8.97375 9.02615ZM19.5203 3.14608C19.249 2.72385 18.8032 2.45515 18.2972 2.40877C17.9142 2.37439 17.3186 2.28242 17.123 2.21765C16.1908 1.8298 15.2415 0.569501 14.2051 0.237633C13.717 0.062502 13.1311 -0.0118684 12.4507 0.0105227C11.8339 0.0337135 11.2806 0.3208 10.9188 0.767023C10.9212 0.77342 10.9253 0.779018 10.9269 0.785416L11.7475 2.8342L12.1321 1.87378C12.1891 1.71945 12.3382 1.61469 12.5118 1.60829C12.9632 1.5899 13.3601 1.63628 13.6469 1.73944C14.5905 2.15287 15.5365 3.41397 16.5974 3.73065C17.0318 3.87619 17.8702 3.97455 18.1644 3.96416L16.5135 7.6331C16.2731 8.20248 15.5227 7.97697 15.0981 7.84022C14.5563 7.6435 13.8433 7.03734 13.2778 6.65509L14.3142 9.24366C14.7502 9.45158 15.2049 9.54195 15.7256 9.59712C16.6814 9.68109 17.6087 9.1597 18.0055 8.27925L19.6759 4.56312C19.8536 4.08971 19.7965 3.57311 19.5227 3.14688L19.5203 3.14608ZM14.8292 14.9078C14.9938 15.3189 14.7877 15.7835 14.3688 15.9442C13.9614 16.1049 13.4766 15.9074 13.3128 15.4924L10.0836 7.42519C9.67044 7.36601 8.96315 7.32123 8.46528 7.50036C8.08719 7.6355 7.6211 7.97857 7.16967 8.31043C6.28068 8.99496 5.41287 9.52115 4.26964 9.59712C3.3016 9.68909 2.38653 9.1589 1.9897 8.27925L0.338816 4.6103C0.142438 4.08891 0.198663 3.57311 0.473266 3.14608C0.74461 2.72385 1.19033 2.45515 1.69554 2.40877C2.80128 2.3376 3.26249 2.12488 4.092 1.36599C5.09752 0.443951 6.08674 -0.0822405 7.54206 0.0105227C8.38298 0.04251 9.10982 0.559905 9.39339 1.33L14.8292 14.9078ZM9.42191 5.77384L7.86963 1.89458C7.78325 1.64108 7.53391 1.5891 7.30086 1.60589C6.32631 1.5811 5.91481 1.92896 5.15456 2.5791C4.31608 3.44916 2.9724 3.99534 1.84547 4.00174L3.48086 7.6339C3.5925 7.8826 3.84917 8.03294 4.11319 8.00576C4.96877 7.94418 5.45035 7.57792 6.19186 7.03094C6.73781 6.6303 7.30086 6.21526 7.9063 5.99855C8.40335 5.82022 8.94522 5.76504 9.42191 5.77464V5.77384Z" fill="#DFDFDF"/>
</svg>
