<svg width="20" height="20" viewBox="0 0 20 20" fill="none" xmlns="http://www.w3.org/2000/svg">
<path d="M15.5948 3.25641C14.6701 2.48692 13.596 1.91729 12.4403 1.58342C11.2846 1.24955 10.0722 1.15868 8.87965 1.31653C6.67343 1.60314 4.65898 2.71865 3.24533 4.43654C1.83168 6.15444 1.12481 8.34594 1.26823 10.5661C1.41166 12.7862 2.39464 14.8685 4.01757 16.3903C5.64051 17.912 7.78175 18.759 10.0065 18.7594H15.1022C15.9365 18.7584 16.6085 18.3297 17.3307 17.8957C17.559 17.7586 17.7525 17.5683 17.8809 17.3349C18.2849 16.6006 18.6285 15.8536 18.7404 15.1805C18.7482 15.1338 18.7513 15.0865 18.7513 15.0391V9.49716V9.45118C18.6741 8.25824 18.3543 7.09358 17.8116 6.02845C17.2688 4.96331 16.5145 4.02007 15.5948 3.25641ZM7.07406 6.35233H9.99337C10.1869 6.35233 10.3726 6.42922 10.5094 6.56609C10.6463 6.70296 10.7232 6.8886 10.7232 7.08216C10.7232 7.27572 10.6463 7.46136 10.5094 7.59823C10.3726 7.73509 10.1869 7.81199 9.99337 7.81199H7.07406C6.8805 7.81199 6.69487 7.73509 6.558 7.59823C6.42113 7.46136 6.34423 7.27572 6.34423 7.08216C6.34423 6.8886 6.42113 6.70296 6.558 6.56609C6.69487 6.42922 6.8805 6.35233 7.07406 6.35233ZM12.9127 13.6506H7.07406C6.8805 13.6506 6.69487 13.5737 6.558 13.4368C6.42113 13.3 6.34423 13.1143 6.34423 12.9208C6.34423 12.7272 6.42113 12.5416 6.558 12.4047C6.69487 12.2678 6.8805 12.1909 7.07406 12.1909H12.9127C13.1062 12.1909 13.2919 12.2678 13.4287 12.4047C13.5656 12.5416 13.6425 12.7272 13.6425 12.9208C13.6425 13.1143 13.5656 13.3 13.4287 13.4368C13.2919 13.5737 13.1062 13.6506 12.9127 13.6506ZM12.9127 10.7313H7.07406C6.8805 10.7313 6.69487 10.6544 6.558 10.5175C6.42113 10.3807 6.34423 10.195 6.34423 10.0015C6.34423 9.80791 6.42113 9.62227 6.558 9.4854C6.69487 9.34853 6.8805 9.27164 7.07406 9.27164H12.9127C13.1062 9.27164 13.2919 9.34853 13.4287 9.4854C13.5656 9.62227 13.6425 9.80791 13.6425 10.0015C13.6425 10.195 13.5656 10.3807 13.4287 10.5175C13.2919 10.6544 13.1062 10.7313 12.9127 10.7313Z" fill="#DFDFDF"/>
</svg>
