<svg width="24" height="24" viewBox="0 0 24 24" fill="none" xmlns="http://www.w3.org/2000/svg">
<g clip-path="url(#clip0_138_1632)">
<path fill-rule="evenodd" clip-rule="evenodd" d="M10.2322 9.6011C10.7011 10.0699 11.337 10.3333 12 10.3333C12.663 10.3333 13.2989 10.0699 13.7678 9.6011C14.2366 9.13226 14.5 8.49637 14.5 7.83333C14.5 7.17029 14.2366 6.53441 13.7678 6.06557C13.2989 5.59673 12.663 5.33333 12 5.33333C11.337 5.33333 10.7011 5.59673 10.2322 6.06557C9.76339 6.53441 9.5 7.17029 9.5 7.83333C9.5 8.49637 9.76339 9.13226 10.2322 9.6011ZM15.3203 15.333C15.3943 15.3342 15.4687 15.3255 15.5417 15.3067C15.7558 15.2514 15.9393 15.1133 16.0516 14.9228C16.164 14.7323 16.1961 14.505 16.1408 14.2908C15.0483 10.1683 8.94917 10.17 7.86 14.2908C7.82991 14.3976 7.82146 14.5094 7.83514 14.6195C7.84882 14.7296 7.88436 14.8359 7.93966 14.9321C7.99497 15.0283 8.06893 15.1125 8.1572 15.1797C8.24548 15.247 8.3463 15.2959 8.45374 15.3236C8.56118 15.3514 8.67308 15.3574 8.78287 15.3413C8.79869 15.339 8.81442 15.3362 8.83005 15.333H15.3203ZM10.8925 21.2967C11.1995 21.5701 11.5964 21.7211 12.0075 21.7208C12.4035 21.7224 12.7863 21.5786 13.0833 21.3167L16.2892 18.6667H18.6667C19.5507 18.6667 20.3986 18.3155 21.0237 17.6904C21.6488 17.0652 22 16.2174 22 15.3333V5.33333C22 4.44928 21.6488 3.60143 21.0237 2.97631C20.3986 2.35119 19.5507 2 18.6667 2H5.33333C4.44928 2 3.60143 2.35119 2.97631 2.97631C2.35119 3.60143 2 4.44928 2 5.33333V15.3333C2 16.2174 2.35119 17.0652 2.97631 17.6904C3.60143 18.3155 4.44928 18.6667 5.33333 18.6667H7.76917L10.8925 21.2967ZM4.15482 4.15482C4.46738 3.84226 4.89131 3.66667 5.33333 3.66667H18.6667C19.1087 3.66667 19.5326 3.84226 19.8452 4.15482C20.1577 4.46738 20.3333 4.89131 20.3333 5.33333V15.3333C20.3333 15.7754 20.1577 16.1993 19.8452 16.5118C19.5326 16.8244 19.1087 17 18.6667 17H15.99C15.7963 17 15.6085 17.0674 15.4592 17.1908L11.9825 20.0375L8.61083 17.1958C8.46061 17.0694 8.27054 17 8.07417 17H5.33333C4.89131 17 4.46738 16.8244 4.15482 16.5118C3.84226 16.1993 3.66667 15.7754 3.66667 15.3333V5.33333C3.66667 4.89131 3.84226 4.46738 4.15482 4.15482Z" fill="#DFDFDF"/>
</g>
<defs>
<clipPath id="clip0_138_1632">
<rect width="20" height="20" fill="white" transform="translate(2 2)"/>
</clipPath>
</defs>
</svg>
