<svg width="20" height="20" viewBox="0 0 20 20" fill="none" xmlns="http://www.w3.org/2000/svg">
<g clip-path="url(#clip0_1_35)">
<path fill-rule="evenodd" clip-rule="evenodd" d="M8.23223 7.6011C8.70107 8.06994 9.33696 8.33333 10 8.33333C10.663 8.33333 11.2989 8.06994 11.7678 7.6011C12.2366 7.13226 12.5 6.49637 12.5 5.83333C12.5 5.17029 12.2366 4.53441 11.7678 4.06557C11.2989 3.59673 10.663 3.33333 10 3.33333C9.33696 3.33333 8.70107 3.59673 8.23223 4.06557C7.76339 4.53441 7.5 5.17029 7.5 5.83333C7.5 6.49637 7.76339 7.13226 8.23223 7.6011ZM13.3203 13.333C13.3943 13.3342 13.4687 13.3255 13.5417 13.3067C13.7558 13.2514 13.9393 13.1133 14.0516 12.9228C14.164 12.7323 14.1961 12.505 14.1408 12.2908C13.0483 8.16833 6.94917 8.17 5.86 12.2908C5.82991 12.3976 5.82146 12.5094 5.83514 12.6195C5.84882 12.7296 5.88436 12.8359 5.93966 12.9321C5.99497 13.0283 6.06893 13.1125 6.1572 13.1797C6.24548 13.247 6.3463 13.2959 6.45374 13.3236C6.56118 13.3514 6.67308 13.3574 6.78287 13.3413C6.79869 13.339 6.81442 13.3362 6.83005 13.333H13.3203ZM8.8925 19.2967C9.19952 19.5701 9.59637 19.7211 10.0075 19.7208C10.4035 19.7224 10.7863 19.5786 11.0833 19.3167L14.2892 16.6667H16.6667C17.5507 16.6667 18.3986 16.3155 19.0237 15.6904C19.6488 15.0652 20 14.2174 20 13.3333V3.33333C20 2.44928 19.6488 1.60143 19.0237 0.976311C18.3986 0.35119 17.5507 0 16.6667 0H3.33333C2.44928 0 1.60143 0.35119 0.976311 0.976311C0.35119 1.60143 0 2.44928 0 3.33333V13.3333C0 14.2174 0.35119 15.0652 0.976311 15.6904C1.60143 16.3155 2.44928 16.6667 3.33333 16.6667H5.76917L8.8925 19.2967ZM2.15482 2.15482C2.46738 1.84226 2.89131 1.66667 3.33333 1.66667H16.6667C17.1087 1.66667 17.5326 1.84226 17.8452 2.15482C18.1577 2.46738 18.3333 2.89131 18.3333 3.33333V13.3333C18.3333 13.7754 18.1577 14.1993 17.8452 14.5118C17.5326 14.8244 17.1087 15 16.6667 15H13.99C13.7963 15 13.6085 15.0674 13.4592 15.1908L9.9825 18.0375L6.61083 15.1958C6.46061 15.0694 6.27054 15 6.07417 15H3.33333C2.89131 15 2.46738 14.8244 2.15482 14.5118C1.84226 14.1993 1.66667 13.7754 1.66667 13.3333V3.33333C1.66667 2.89131 1.84226 2.46738 2.15482 2.15482Z" fill="#DFDFDF"/>
</g>
<defs>
<clipPath id="clip0_1_35">
<rect width="20" height="20" fill="white"/>
</clipPath>
</defs>
</svg>
