<svg width="20" height="20" viewBox="0 0 20 20" fill="none" xmlns="http://www.w3.org/2000/svg">
<g clip-path="url(#clip0_201_581)">
<path d="M7.08023 16.57H3.7288C3.64968 16.5698 3.57385 16.5383 3.5179 16.4823C3.46195 16.4264 3.43043 16.3505 3.43023 16.2714V3.72856C3.43043 3.64943 3.46195 3.5736 3.5179 3.51765C3.57385 3.4617 3.64968 3.43018 3.7288 3.42999H7.08023C7.37065 3.42999 7.64916 3.31462 7.85452 3.10927C8.05987 2.90392 8.17523 2.6254 8.17523 2.33499C8.17523 2.04458 8.05987 1.76606 7.85452 1.56071C7.64916 1.35536 7.37065 1.23999 7.08023 1.23999H3.7288C3.06903 1.24076 2.4365 1.5032 1.96997 1.96973C1.50344 2.43626 1.24101 3.06879 1.24023 3.72856L1.24023 16.2714C1.24101 16.9312 1.50344 17.5637 1.96997 18.0303C2.4365 18.4968 3.06903 18.7592 3.7288 18.76H7.08023C7.37065 18.76 7.64916 18.6446 7.85452 18.4393C8.05987 18.2339 8.17523 17.9554 8.17523 17.665C8.17523 17.3746 8.05987 17.0961 7.85452 16.8907C7.64916 16.6854 7.37065 16.57 7.08023 16.57Z" fill="#DFDFDF"/>
<path d="M17.7985 7.67665L14.9646 4.84498C14.8629 4.74331 14.7422 4.66268 14.6093 4.60767C14.4764 4.55267 14.334 4.52438 14.1902 4.52441C14.0464 4.52445 13.904 4.55281 13.7711 4.60787C13.6383 4.66294 13.5176 4.74363 13.4159 4.84534C13.3143 4.94705 13.2336 5.0678 13.1786 5.20067C13.1236 5.33355 13.0953 5.47596 13.0954 5.61976C13.0954 5.9102 13.2109 6.18872 13.4163 6.39404L15.9071 8.88407L5.98563 8.90451C5.69521 8.90451 5.4167 9.01987 5.21134 9.22522C5.00599 9.43058 4.89062 9.7091 4.89062 9.99951C4.89062 10.2899 5.00599 10.5684 5.21134 10.7738C5.4167 10.9791 5.69521 11.0945 5.98563 11.0945L15.9472 11.0763L13.4163 13.6072C13.223 13.8148 13.1178 14.0894 13.1229 14.3731C13.1281 14.6568 13.2431 14.9274 13.4438 15.1279C13.6446 15.3285 13.9153 15.4432 14.199 15.4481C14.4826 15.453 14.7571 15.3476 14.9646 15.154L17.7963 12.3224C18.1013 12.0173 18.3433 11.6552 18.5084 11.2566C18.6735 10.8581 18.7585 10.4309 18.7585 9.99951C18.7585 9.56811 18.6735 9.14094 18.5084 8.74238C18.3433 8.34383 18.1013 7.98169 17.7963 7.67665H17.7985Z" fill="#DFDFDF"/>
</g>
<defs>
<clipPath id="clip0_201_581">
<rect width="17.52" height="17.52" fill="white" transform="translate(1.24023 1.23999)"/>
</clipPath>
</defs>
</svg>
