<svg width="73" height="19" viewBox="0 0 73 19" fill="none" xmlns="http://www.w3.org/2000/svg">
<path d="M3.01386 17.9609C2.17598 17.9609 1.53749 17.8593 1.09819 17.6562C0.667017 17.4531 0.37422 17.1211 0.219596 16.6601C0.0731983 16.1992 0 15.5859 0 14.8203V3.03122C0 2.80467 0.0407133 2.6328 0.122034 2.51561C0.488133 1.99998 1.00052 1.45701 1.65952 0.886698C1.78145 0.792948 1.88724 0.746078 1.97668 0.746078C2.07435 0.746078 2.17598 0.792948 2.28177 0.886698C2.63974 1.18358 2.94066 1.46873 3.18473 1.74217C3.42879 2.0078 3.64027 2.26561 3.81926 2.51561C3.90058 2.64061 3.94129 2.81248 3.94129 3.03122V13.4257C3.94129 13.9492 4.03886 14.3242 4.23409 14.5507C4.42932 14.7773 4.79542 14.8906 5.33228 14.8906L9.07834 14.8789C9.27347 14.8789 9.41997 14.9101 9.51753 14.9726C9.72911 15.1132 9.94871 15.2812 10.1764 15.4765C10.4042 15.6718 10.6443 15.9062 10.8963 16.1797C10.9778 16.2812 11.0184 16.3632 11.0184 16.4257C11.0184 16.4961 10.9778 16.5742 10.8963 16.6601C10.6443 16.9336 10.4042 17.1679 10.1764 17.3632C9.94871 17.5586 9.72911 17.7265 9.51753 17.8671C9.40362 17.9297 9.25722 17.9609 9.07834 17.9609H3.01386ZM19.877 18.2539C18.185 18.2539 16.7127 17.9414 15.46 17.3164C14.2072 16.6914 13.2351 15.75 12.5437 14.4921C11.8603 13.2343 11.5187 11.664 11.5187 9.78122C11.5187 6.78902 12.2793 4.55862 13.8005 3.08982C15.3216 1.61326 17.4407 0.874979 20.1577 0.874979C22.7039 0.874979 24.7172 1.59764 26.1977 3.04292C27.6782 4.48042 28.4185 6.61322 28.4185 9.44142C28.4185 11.4414 28.0727 13.0937 27.3813 14.3984C26.6898 15.6953 25.7055 16.664 24.4284 17.3047C23.1513 17.9375 21.6341 18.2539 19.877 18.2539ZM19.9503 15.0898C21.4145 15.0898 22.5005 14.5859 23.2082 13.5781C23.916 12.5703 24.2698 11.2617 24.2698 9.65232C24.2698 7.78512 23.9363 6.38282 23.2693 5.44532C22.6021 4.50782 21.5284 4.03902 20.0479 4.03902C17.1275 4.03902 15.6674 5.88672 15.6674 9.58202C15.6674 11.2304 16.0171 12.5625 16.7167 13.5781C17.4245 14.5859 18.5023 15.0898 19.9503 15.0898ZM40.7791 2.08201C41.2265 2.68358 41.682 3.46092 42.1457 4.41402C42.6175 5.35932 43.0731 6.39842 43.5124 7.53122C43.9516 8.66402 44.3461 9.82422 44.6959 11.0117C45.0538 12.1914 45.3467 13.3281 45.5744 14.4218C45.8022 15.5156 45.9324 16.4882 45.9649 17.3398C45.973 17.7539 45.7778 17.9609 45.3792 17.9609H42.4264C42.044 17.9609 41.8447 17.7773 41.8285 17.4101C41.7959 16.5351 41.6495 15.4726 41.3892 14.2226H34.7269C34.4991 15.4414 34.3689 16.5039 34.3365 17.4101C34.3201 17.7773 34.1127 17.9609 33.7141 17.9609H30.8223C30.6758 17.9609 30.5539 17.9218 30.4562 17.8437C30.3585 17.7578 30.3139 17.6132 30.322 17.4101C30.3627 16.5429 30.4928 15.5586 30.7124 14.457C30.9402 13.3476 31.2331 12.1992 31.5909 11.0117C31.9489 9.82422 32.3475 8.66402 32.7868 7.53122C33.2261 6.39062 33.6816 5.34762 34.1534 4.40232C34.6252 3.45702 35.0848 2.68358 35.5322 2.08201C35.7682 1.7617 36.0162 1.52733 36.2765 1.37889C36.545 1.23045 36.8745 1.15623 37.2649 1.15623H39.022C39.4206 1.15623 39.7541 1.23045 40.0226 1.37889C40.291 1.52733 40.5432 1.7617 40.7791 2.08201ZM38.0214 4.85932C37.4845 5.67972 36.9923 6.66012 36.545 7.80072C36.0976 8.94142 35.7112 10.1132 35.3858 11.3164H40.6814C40.3398 10.1132 39.9453 8.94142 39.4979 7.80072C39.0505 6.66012 38.5827 5.67972 38.0946 4.85932H38.0214ZM52.7736 17.3398C52.7736 17.5742 52.7207 17.7382 52.615 17.832C52.5174 17.9179 52.3465 17.9609 52.1026 17.9609H49.5035C49.2595 17.9609 49.0845 17.9179 48.9789 17.832C48.8812 17.7382 48.8324 17.5742 48.8324 17.3398V3.03122C48.8324 2.80467 48.8731 2.6328 48.9544 2.51561C49.3205 1.99998 49.833 1.45701 50.4919 0.886698C50.6139 0.792948 50.7196 0.746078 50.8091 0.746078C50.9067 0.746078 51.0084 0.792948 51.1141 0.886698C51.4721 1.18358 51.7731 1.46873 52.0171 1.74217C52.2612 2.0078 52.4726 2.26561 52.6516 2.51561C52.7329 2.64061 52.7736 2.81248 52.7736 3.03122V17.3398ZM60.4121 17.3398C60.4121 17.5742 60.3633 17.7382 60.2657 17.832C60.1762 17.9179 60.0135 17.9609 59.7776 17.9609H57.325C57.0972 17.9609 56.9345 17.9179 56.8369 17.832C56.7393 17.7382 56.6905 17.5742 56.6905 17.3398V2.49217C56.6905 2.03123 56.7841 1.6953 56.9711 1.48436C57.1582 1.26561 57.4876 1.15623 57.9595 1.15623H59.0943C59.5091 1.15623 59.8996 1.21092 60.2657 1.3203C60.6399 1.42186 61.0344 1.65623 61.4492 2.02342C61.8723 2.39061 62.3603 2.96092 62.9135 3.73432C63.4748 4.50002 64.15 5.54682 64.939 6.87502C65.6956 8.14062 66.3016 9.15232 66.7571 9.91012C67.2208 10.6679 67.5787 11.2461 67.8309 11.6445C68.0831 12.0429 68.2702 12.3281 68.3922 12.5C68.5224 12.6718 68.6281 12.8125 68.7095 12.9218V3.03122C68.7095 2.80467 68.746 2.6328 68.8193 2.51561C69.1691 1.99998 69.653 1.45701 70.2713 0.886698C70.3933 0.792948 70.495 0.746078 70.5763 0.746078C70.6658 0.746078 70.7634 0.792948 70.8692 0.886698C71.2027 1.18358 71.4833 1.46873 71.7111 1.74217C71.9471 2.0078 72.1504 2.26561 72.3212 2.51561C72.3944 2.64061 72.4311 2.81248 72.4311 3.03122V16.9882C72.4311 17.3398 72.3619 17.5898 72.2236 17.7382C72.0854 17.8867 71.8332 17.9609 71.4671 17.9609H70.2957C69.9459 17.9609 69.588 17.9062 69.222 17.7968C68.8559 17.6797 68.441 17.4218 67.9774 17.0234C67.5136 16.6171 66.9646 15.9882 66.33 15.1367C65.6956 14.2851 64.9309 13.1211 64.0361 11.6445C63.2795 10.3867 62.6735 9.38672 62.218 8.64452C61.7706 7.90232 61.4289 7.34372 61.193 6.96872C60.9571 6.58592 60.7863 6.32032 60.6805 6.17182C60.5748 6.01562 60.4853 5.89842 60.4121 5.82032V17.3398Z" fill="white"/>
</svg>
