<svg width="20" height="20" viewBox="0 0 20 20" fill="none" xmlns="http://www.w3.org/2000/svg">
<path d="M19.6345 17.8712L15.7636 13.9986C18.66 10.128 17.8702 4.64214 13.9996 1.74571C10.129 -1.15073 4.64313 -0.360966 1.74669 3.50968C-1.14974 7.38032 -0.35998 12.8662 3.51067 15.7626C6.61989 18.0893 10.8903 18.0893 13.9996 15.7626L17.8722 19.6352C18.3589 20.1218 19.1479 20.1218 19.6345 19.6352C20.1212 19.1485 20.1212 18.3595 19.6345 17.8729L19.6345 17.8712ZM8.78741 15.0151C5.34736 15.0151 2.55868 12.2265 2.55868 8.78642C2.55868 5.34637 5.34736 2.5577 8.78741 2.5577C12.2275 2.5577 15.0161 5.34637 15.0161 8.78642C15.0125 12.2249 12.2259 15.0115 8.78741 15.0151Z" fill="#6B83E1"/>
</svg>
