<svg width="24" height="24" viewBox="0 0 24 24" fill="none" xmlns="http://www.w3.org/2000/svg">
<g clip-path="url(#clip0_1_51)">
<path fill-rule="evenodd" clip-rule="evenodd" d="M12 21C11.5807 21.0002 11.15 21 11.15 21H7.68455H5.2C4.29826 21 3.43346 20.6418 2.79584 20.0042C2.15821 19.3665 1.8 18.5017 1.8 17.6V7.4C1.8 6.49826 2.15821 5.63346 2.79584 4.99584C3.43346 4.35821 4.29826 4 5.2 4H18.8C19.7017 4 20.5665 4.35821 21.2042 4.99584C21.8418 5.63346 22.2 6.49826 22.2 7.4V17.6C22.2 18.5017 21.8418 19.3665 21.2042 20.0042C20.5665 20.6418 19.7017 21 18.8 21H16.375H13.275C13.275 21 12.4039 21.0016 12 21ZM5.2 5.7C4.74913 5.7 4.31673 5.87911 3.99792 6.19792C3.67911 6.51673 3.5 6.94913 3.5 7.4V17.6C3.5 18.0509 3.67911 18.4833 3.99792 18.8021C4.31673 19.1209 4.74913 19.3 5.2 19.3H7.99565H8.6H12.425H15.4H16.0698H18.8C19.2509 19.3 19.6833 19.1209 20.0021 18.8021C20.3209 18.4833 20.5 18.0509 20.5 17.6V7.4C20.5 6.94913 20.3209 6.51673 20.0021 6.19792C19.6833 5.87911 19.2509 5.7 18.8 5.7H5.2Z" fill="#DFDFDF"/>
<path d="M15.0281 11.4906H13.0094V9.47187C13.0094 9.20417 12.903 8.94743 12.7137 8.75813C12.5244 8.56884 12.2677 8.46249 12 8.46249C11.7323 8.46249 11.4756 8.56884 11.2863 8.75813C11.097 8.94743 10.9906 9.20417 10.9906 9.47187V11.4906H8.97187C8.70417 11.4906 8.44743 11.597 8.25814 11.7863C8.06884 11.9756 7.9625 12.2323 7.9625 12.5C7.9625 12.7677 8.06884 13.0244 8.25814 13.2137C8.44743 13.403 8.70417 13.5094 8.97187 13.5094H10.9906V15.5281C10.9906 15.7958 11.097 16.0526 11.2863 16.2419C11.4756 16.4311 11.7323 16.5375 12 16.5375C12.2677 16.5375 12.5244 16.4311 12.7137 16.2419C12.903 16.0526 13.0094 15.7958 13.0094 15.5281V13.5094H15.0281C15.2958 13.5094 15.5526 13.403 15.7419 13.2137C15.9312 13.0244 16.0375 12.7677 16.0375 12.5C16.0375 12.2323 15.9312 11.9756 15.7419 11.7863C15.5526 11.597 15.2958 11.4906 15.0281 11.4906Z" fill="#DFDFDF"/>
</g>
<defs>
<clipPath id="clip0_1_51">
<rect width="20.4" height="17" fill="white" transform="translate(1.8 4)"/>
</clipPath>
</defs>
</svg>
