<svg width="22" height="17" viewBox="0 0 22 17" fill="none" xmlns="http://www.w3.org/2000/svg">
<g clip-path="url(#clip0_1_52)">
<path fill-rule="evenodd" clip-rule="evenodd" d="M11 17C10.5807 17.0002 10.15 17 10.15 17H6.68455H4.2C3.29826 17 2.43346 16.6418 1.79584 16.0042C1.15821 15.3665 0.799999 14.5017 0.799999 13.6V3.4C0.799999 2.49826 1.15821 1.63346 1.79584 0.995837C2.43346 0.358213 3.29826 0 4.2 0H17.8C18.7017 0 19.5665 0.358213 20.2042 0.995837C20.8418 1.63346 21.2 2.49826 21.2 3.4V13.6C21.2 14.5017 20.8418 15.3665 20.2042 16.0042C19.5665 16.6418 18.7017 17 17.8 17H15.375H12.275C12.275 17 11.4039 17.0016 11 17ZM4.2 1.7C3.74913 1.7 3.31673 1.87911 2.99792 2.19792C2.67911 2.51673 2.5 2.94913 2.5 3.4V13.6C2.5 14.0509 2.67911 14.4833 2.99792 14.8021C3.31673 15.1209 3.74913 15.3 4.2 15.3H6.99565H7.6H11.425H14.4H15.0698H17.8C18.2509 15.3 18.6833 15.1209 19.0021 14.8021C19.3209 14.4833 19.5 14.0509 19.5 13.6V3.4C19.5 2.94913 19.3209 2.51673 19.0021 2.19792C18.6833 1.87911 18.2509 1.7 17.8 1.7H4.2Z" fill="#DFDFDF"/>
<path d="M14.0281 7.49062H12.0094V5.47187C12.0094 5.20417 11.903 4.94743 11.7137 4.75813C11.5244 4.56884 11.2677 4.46249 11 4.46249C10.7323 4.46249 10.4756 4.56884 10.2863 4.75813C10.097 4.94743 9.99062 5.20417 9.99062 5.47187V7.49062H7.97187C7.70417 7.49062 7.44743 7.59696 7.25814 7.78626C7.06884 7.97555 6.9625 8.23229 6.9625 8.49999C6.9625 8.7677 7.06884 9.02444 7.25814 9.21373C7.44743 9.40302 7.70417 9.50937 7.97187 9.50937H9.99062V11.5281C9.99062 11.7958 10.097 12.0526 10.2863 12.2419C10.4756 12.4311 10.7323 12.5375 11 12.5375C11.2677 12.5375 11.5244 12.4311 11.7137 12.2419C11.903 12.0526 12.0094 11.7958 12.0094 11.5281V9.50937H14.0281C14.2958 9.50937 14.5526 9.40302 14.7419 9.21373C14.9312 9.02444 15.0375 8.7677 15.0375 8.49999C15.0375 8.23229 14.9312 7.97555 14.7419 7.78626C14.5526 7.59696 14.2958 7.49062 14.0281 7.49062Z" fill="#DFDFDF"/>
</g>
<defs>
<clipPath id="clip0_1_52">
<rect width="20.4" height="17" fill="white" transform="translate(0.799999)"/>
</clipPath>
</defs>
</svg>
