<svg width="24" height="24" viewBox="0 0 24 24" fill="none" xmlns="http://www.w3.org/2000/svg">
<path d="M19.9167 14.0836C21.0673 14.0836 22 13.1509 22 12.0003C22 10.8497 21.0673 9.91699 19.9167 9.91699C18.7661 9.91699 17.8334 10.8497 17.8334 12.0003C17.8334 13.1509 18.7661 14.0836 19.9167 14.0836Z" fill="#DFDFDF"/>
<path d="M12 14.0836C13.1506 14.0836 14.0833 13.1509 14.0833 12.0003C14.0833 10.8497 13.1506 9.91699 12 9.91699C10.8494 9.91699 9.91669 10.8497 9.91669 12.0003C9.91669 13.1509 10.8494 14.0836 12 14.0836Z" fill="#DFDFDF"/>
<path d="M4.08332 14.0836C5.23391 14.0836 6.16664 13.1509 6.16664 12.0003C6.16664 10.8497 5.23391 9.91699 4.08332 9.91699C2.93273 9.91699 2 10.8497 2 12.0003C2 13.1509 2.93273 14.0836 4.08332 14.0836Z" fill="#DFDFDF"/>
</svg>
