<svg width="24" height="24" viewBox="0 0 24 24" fill="none" xmlns="http://www.w3.org/2000/svg">
<path d="M19.9167 14.0833C21.0673 14.0833 22 13.1506 22 12C22 10.8494 21.0673 9.91669 19.9167 9.91669C18.7661 9.91669 17.8334 10.8494 17.8334 12C17.8334 13.1506 18.7661 14.0833 19.9167 14.0833Z" fill="#DFDFDF"/>
<path d="M12 14.0833C13.1506 14.0833 14.0833 13.1506 14.0833 12C14.0833 10.8494 13.1506 9.91669 12 9.91669C10.8494 9.91669 9.91669 10.8494 9.91669 12C9.91669 13.1506 10.8494 14.0833 12 14.0833Z" fill="#DFDFDF"/>
<path d="M4.08332 14.0833C5.23391 14.0833 6.16664 13.1506 6.16664 12C6.16664 10.8494 5.23391 9.91669 4.08332 9.91669C2.93273 9.91669 2 10.8494 2 12C2 13.1506 2.93273 14.0833 4.08332 14.0833Z" fill="#DFDFDF"/>
</svg>
