<svg width="24" height="24" viewBox="0 0 24 24" fill="none" xmlns="http://www.w3.org/2000/svg">
<path d="M10.9737 13.0262L11.122 13.3956L8.68158 19.4924C8.5178 19.9074 8.03296 20.1049 7.62554 19.9442C7.20589 19.7827 6.99974 19.3189 7.16515 18.9078L8.97737 14.38C9.67243 13.9874 10.3365 13.4004 10.9737 13.0262ZM21.5203 7.14608C21.249 6.72385 20.8032 6.45515 20.2972 6.40877C19.9142 6.37439 19.3186 6.28242 19.123 6.21765C18.1908 5.8298 17.2415 4.5695 16.2051 4.23763C15.717 4.0625 15.1311 3.98813 14.4507 4.01052C13.8339 4.03371 13.2806 4.3208 12.9188 4.76702C12.9212 4.77342 12.9253 4.77902 12.9269 4.78542L13.7475 6.8342L14.1321 5.87378C14.1891 5.71945 14.3382 5.61469 14.5118 5.60829C14.9632 5.5899 15.3601 5.63628 15.6469 5.73944C16.5905 6.15287 17.5365 7.41397 18.5974 7.73065C19.0318 7.87619 19.8702 7.97455 20.1644 7.96416L18.5135 11.6331C18.2731 12.2025 17.5227 11.977 17.0981 11.8402C16.5563 11.6435 15.8433 11.0373 15.2778 10.6551L16.3142 13.2437C16.7502 13.4516 17.2049 13.5419 17.7256 13.5971C18.6814 13.6811 19.6087 13.1597 20.0055 12.2792L21.6759 8.56312C21.8536 8.08971 21.7965 7.57311 21.5227 7.14688L21.5203 7.14608ZM16.8292 18.9078C16.9938 19.3189 16.7877 19.7835 16.3688 19.9442C15.9614 20.1049 15.4766 19.9074 15.3128 19.4924L12.0836 11.4252C11.6704 11.366 10.9632 11.3212 10.4653 11.5004C10.0872 11.6355 9.6211 11.9786 9.16967 12.3104C8.28068 12.995 7.41287 13.5212 6.26964 13.5971C5.3016 13.6891 4.38653 13.1589 3.9897 12.2792L2.33882 8.6103C2.14244 8.08891 2.19866 7.57311 2.47327 7.14608C2.74461 6.72385 3.19033 6.45515 3.69554 6.40877C4.80128 6.3376 5.26249 6.12488 6.092 5.36599C7.09752 4.44395 8.08674 3.91776 9.54206 4.01052C10.383 4.04251 11.1098 4.5599 11.3934 5.33L16.8292 18.9078ZM11.4219 9.77384L9.86963 5.89458C9.78325 5.64108 9.53391 5.5891 9.30086 5.60589C8.32631 5.5811 7.91481 5.92896 7.15456 6.5791C6.31608 7.44916 4.9724 7.99534 3.84547 8.00174L5.48086 11.6339C5.5925 11.8826 5.84917 12.0329 6.11319 12.0058C6.96877 11.9442 7.45035 11.5779 8.19186 11.0309C8.73781 10.6303 9.30086 10.2153 9.9063 9.99855C10.4034 9.82022 10.9452 9.76504 11.4219 9.77464V9.77384Z" fill="#DFDFDF"/>
</svg>
