<svg width="15" height="15" viewBox="0 0 15 15" fill="none" xmlns="http://www.w3.org/2000/svg">
<g clip-path="url(#clip0_206_8665)">
<path d="M14.3244 13.0756L11.5825 10.3325C13.6342 7.59084 13.0747 3.70504 10.333 1.6534C7.59132 -0.398243 3.70553 0.161173 1.65389 2.90288C-0.397754 5.64459 0.161661 9.53038 2.90337 11.582C5.10573 13.2301 8.13064 13.2301 10.333 11.582L13.0761 14.3251C13.4208 14.6698 13.9797 14.6698 14.3244 14.3251C14.6691 13.9804 14.6691 13.4215 14.3244 13.0768L14.3244 13.0756ZM6.64106 11.0526C4.20436 11.0526 2.22905 9.07727 2.22905 6.64057C2.22905 4.20387 4.20436 2.22856 6.64106 2.22856C9.07776 2.22856 11.0531 4.20387 11.0531 6.64057C11.0505 9.07617 9.07668 11.05 6.64106 11.0526Z" fill="#3E3E3E"/>
</g>
<defs>
<clipPath id="clip0_206_8665">
<rect width="14.1667" height="14.1667" fill="white" transform="translate(0.416748 0.416992)"/>
</clipPath>
</defs>
</svg>
