<svg width="18" height="18" viewBox="0 0 18 18" fill="none" xmlns="http://www.w3.org/2000/svg">
<g clip-path="url(#clip0_206_8657)">
<path d="M8.59034 15.7712C4.8509 15.7702 1.82028 12.7379 1.82129 8.99853C1.82229 5.25913 4.85452 2.22849 8.59396 2.22949C11.1478 2.23018 13.484 3.66777 14.6356 5.94724C14.8391 6.36804 14.6629 6.87416 14.2421 7.07765C13.8322 7.27594 13.3388 7.11426 13.1257 6.71176C11.8619 4.20811 8.8077 3.20301 6.30402 4.46683C3.80033 5.73065 2.79523 8.7848 4.05906 11.2885C5.32288 13.7922 8.37703 14.7973 10.8807 13.5334C11.8456 13.0464 12.6298 12.2642 13.1195 11.3007C13.3315 10.8841 13.8412 10.7182 14.2578 10.9303C14.6745 11.1424 14.8403 11.652 14.6282 12.0687C13.4774 14.345 11.1411 15.7776 8.59034 15.7712Z" fill="#DFDFDF"/>
</g>
<path d="M15.4447 4.45864C15.3839 4.42961 15.3182 4.41296 15.2514 4.40963C15.1846 4.40631 15.1179 4.41637 15.0552 4.43925C14.9926 4.46214 14.9351 4.49739 14.8862 4.54299C14.8372 4.58859 14.7977 4.64366 14.7699 4.70504L13.8545 6.7244C13.8358 6.76568 13.8016 6.79752 13.7594 6.81292C13.7172 6.82831 13.6706 6.826 13.6297 6.80649L11.6287 5.85203C11.5059 5.79344 11.3659 5.78646 11.2394 5.83262C11.1128 5.87879 11.0102 5.97432 10.954 6.09821C10.8978 6.22209 10.8927 6.36418 10.9398 6.49321C10.9869 6.62224 11.0823 6.72765 11.2051 6.78624L13.2064 7.74091C13.3483 7.80858 13.5015 7.84739 13.6574 7.85512C13.8133 7.86286 13.9687 7.83937 14.1149 7.786C14.2611 7.73262 14.3951 7.65041 14.5093 7.54406C14.6235 7.4377 14.7157 7.30928 14.7805 7.16613L15.6959 5.14645C15.752 5.02258 15.757 4.88053 15.7099 4.75155C15.6628 4.62256 15.5674 4.5172 15.4447 4.45864Z" fill="#DFDFDF"/>
<defs>
<clipPath id="clip0_206_8657">
<rect width="13.5417" height="13.5417" fill="white" transform="translate(1.5 2.22949)"/>
</clipPath>
</defs>
</svg>
