<svg width="18" height="18" viewBox="0 0 18 18" fill="none" xmlns="http://www.w3.org/2000/svg">
<path d="M9 1.5C5.27775 1.5 2.25 4.5285 2.25 8.25V14.25H2.28825C2.472 15.5183 3.55575 16.5 4.875 16.5C5.7555 16.5 6.4305 16.1873 6.879 15.6195C7.15791 15.8995 7.48954 16.1216 7.85473 16.2727C8.21992 16.4239 8.61145 16.5012 9.00669 16.5003C9.40193 16.4993 9.79307 16.42 10.1575 16.2671C10.5219 16.1141 10.8525 15.8904 11.13 15.609C11.5808 16.1805 12.258 16.5 13.125 16.5C14.5725 16.5 15.75 15.3225 15.75 13.875V8.25C15.75 4.5285 12.7222 1.5 9 1.5ZM14.25 13.875C14.25 14.4953 13.7452 15 13.125 15C12.7882 15 12 15 12 13.5V12.75H10.5V13.5C10.5 14.3273 9.82725 15 9 15C8.17275 15 7.5 14.3273 7.5 13.5V12.75H6V13.5C6 14.8838 5.4195 15 4.875 15C4.25475 15 3.75 14.4953 3.75 13.875V8.25C3.75 5.355 6.10575 3 9 3C11.8942 3 14.25 5.355 14.25 8.25V13.875Z" fill="#DFDFDF"/>
<path d="M6.75 9C7.57843 9 8.25 8.32843 8.25 7.5C8.25 6.67157 7.57843 6 6.75 6C5.92157 6 5.25 6.67157 5.25 7.5C5.25 8.32843 5.92157 9 6.75 9Z" fill="#DFDFDF"/>
<path d="M11.25 9C12.0784 9 12.75 8.32843 12.75 7.5C12.75 6.67157 12.0784 6 11.25 6C10.4216 6 9.75 6.67157 9.75 7.5C9.75 8.32843 10.4216 9 11.25 9Z" fill="#DFDFDF"/>
</svg>
