<svg width="157" height="157" viewBox="0 0 230 242" fill="none" xmlns="http://www.w3.org/2000/svg">
<path d="M0.0996094 118.9C0.0996094 101.8 0.0996088 84.8004 0.199609 67.7004C0.199609 66.6004 0.799609 65.1004 1.59961 64.3004L67.5996 2.20039C68.9996 0.900392 70.2996 0.400391 72.1996 0.400391C100.6 0.500391 129.1 0.500391 157.5 0.400391C159.3 0.400391 160.8 0.900391 162.1 2.10039C184.3 23.3004 206.5 44.4004 228.7 65.6004C229.3 66.2004 229.6 67.5004 229.6 68.5004V160.8C229.6 164.3 230.4 168.2 229.2 171.2C228 174.1 224.6 176.1 222.1 178.4C203.7 195.8 185.4 213.3 167 230.7C166.2 231.5 165.1 232.1 164.4 233.1C161.7 237.1 157.8 237.4 153.4 237.4C126.1 237.2 98.8996 237.3 71.5996 237.3C70.3996 237.3 68.8996 236.7 67.8996 235.8C45.6996 215.1 23.4996 194.3 1.39961 173.5C0.599609 172.8 0.0996094 171.4 0.0996094 170.3V118.9ZM36.7996 118.4C36.7996 129.1 36.7996 139.7 36.8996 150.4C36.8996 152 37.2996 154 38.2996 155C52.7996 169.8 67.4996 184.4 82.1996 199C83.0996 199.9 84.5996 200.6 85.7996 200.6C105 200.7 124.3 200.7 143.5 200.7C145.1 200.7 146.2 200.2 147.4 199C161.8 184.6 176.3 170.2 190.8 155.8C192.1 154.5 192.7 153.1 192.7 151.3C192.7 129.7 192.7 108.2 192.6 86.6004C192.6 85.4004 192 84.0004 191.2 83.2004C176.4 68.3004 161.6 53.5004 146.7 38.8004C145.8 37.9004 144.3 37.3004 143.1 37.3004C124.1 37.2004 105.1 37.2004 86.0996 37.2004C84.4996 37.2004 83.3996 37.7004 82.1996 38.8004C67.4996 53.4004 52.8996 67.9004 38.2996 82.5004C37.4996 83.3004 36.8996 84.7004 36.8996 85.9004C36.6996 96.7004 36.7996 107.6 36.7996 118.4ZM19.9996 155.6C23.1996 154.1 25.7996 152.9 28.2996 151.5C28.9996 151.1 29.6996 149.9 29.7996 149C29.9996 146.7 29.8996 144.3 29.8996 142C29.8996 124.2 29.8996 106.5 29.7996 88.7004C29.7996 87.8004 29.4996 86.3004 28.7996 86.0004C26.0996 84.6004 23.1996 83.5004 19.9996 82.1004V111H12.4996V81.9004C12.4996 78.0004 12.4996 78.0004 8.29961 76.8004V161.4C12.1996 159.9 12.1996 159.9 12.1996 156.2V125.8H19.8996C19.9996 135.7 19.9996 145.4 19.9996 155.6ZM209.3 82.4004C206.6 83.6004 204.2 84.5004 201.9 85.7004C201.3 86.0004 200.7 86.9004 200.7 87.6004C200.6 108.6 200.6 129.5 200.7 150.5C200.7 151.1 201 152 201.5 152.2C204 153.4 206.5 154.4 209.4 155.7V126.4H217.1V156.9C217.1 160.3 217.6 160.8 221.2 161.6V76.4004C217.3 77.6004 217.1 77.8004 217.1 81.5004V111.3H209.3V82.4004ZM22.1996 75.1004C24.6996 76.3004 26.9996 77.2004 29.1996 78.5004C30.7996 79.4004 31.6996 79.1004 32.9996 77.8004C48.0996 62.8004 63.1996 47.7004 78.3996 32.7004L80.0996 31.0004C78.6996 28.6004 77.3996 26.3004 75.8996 23.8004C67.4996 31.8004 59.3996 39.6004 50.9996 47.7004C49.1996 45.3004 47.4996 43.2004 45.6996 40.9004C46.4996 40.1004 47.0996 39.5004 47.7996 38.9004L69.0996 18.2004C71.7996 15.5004 71.7996 15.5004 69.1996 12.4004C49.7996 31.1004 30.3996 49.9004 10.7996 68.8004C12.3996 69.7004 13.5996 70.3004 14.5996 70.9004C22.1996 63.5004 29.5996 56.3004 37.1996 48.9004C38.6996 50.4004 40.2996 52.0004 41.6996 53.7004C41.9996 54.1004 41.7996 55.3004 41.4996 55.8004C39.3996 58.1004 37.0996 60.2004 34.8996 62.4004C30.6996 66.5004 26.5996 70.7004 22.1996 75.1004ZM21.5996 163.1C22.7996 164 23.5996 164.4 24.1996 165C29.8996 170.6 35.5996 176.3 41.2996 182C41.7996 182.5 42.0996 183.9 41.8996 184.2C40.3996 185.9 38.5996 187.4 37.0996 188.9C29.6996 181.6 22.1996 174.4 14.6996 167.1C13.6996 167.6 12.5996 168.2 11.1996 169C30.7996 188.1 50.0996 206.9 69.3996 225.8C71.6996 222.2 71.6996 222.2 68.9996 219.5L47.6996 198.8C47.0996 198.2 46.5996 197.6 45.8996 196.9C47.6996 194.6 49.3996 192.6 51.0996 190.4C59.4996 198.5 67.6996 206.3 75.9996 214.2C77.4996 211.6 78.7996 209.4 80.3996 206.7C79.6996 206.2 78.9996 205.7 78.3996 205.1C72.0996 198.9 65.8996 192.7 59.6996 186.5C50.6996 177.5 41.6996 168.6 32.6996 159.7C32.0996 159.1 30.7996 158.5 30.2996 158.8C27.3996 159.9 24.9996 161.3 21.5996 163.1ZM150 30.3004C154.8 35.6004 159.1 40.8004 163.9 45.5004C174.9 56.4004 186 67.0004 197.2 77.7004C197.8 78.2004 198.9 78.9004 199.5 78.6004C202.1 77.6004 204.5 76.2004 207.2 74.9004C199.5 67.1004 192 59.6004 184.3 51.8004C186.3 50.0004 188.2 48.2004 190 46.6004C198.2 54.5004 206.5 62.6004 214.9 70.7004C215.9 70.2004 217 69.5004 218.5 68.7004C198.8 49.6004 179.5 30.8004 160.1 12.0004C157.8 15.5004 157.7 15.6004 160.5 18.3004C165.3 23.0004 170.2 27.5004 175.1 32.1004C177.2 34.1004 179.2 36.0004 181.4 38.1004C179.5 40.4004 177.8 42.6004 176 44.9004C168.5 37.7004 161.3 30.8004 153.9 23.7004C152.2 26.5004 150.8 29.0004 150 30.3004ZM206.9 163C204.3 161.3 201.8 159.6 199.3 158C182.4 174.3 165.7 190.5 148.9 206.7C150.5 209.3 151.9 211.7 153.5 214.3C161 207.1 168.3 200.1 175.8 193C177.7 195.4 179.4 197.5 181.1 199.8C173.2 207.3 165.5 214.7 157.6 222.1C158.3 223.4 158.9 224.5 159.6 225.8C179.1 206.8 198.5 188 218 169C216.6 168.3 215.5 167.6 214.6 167.1C206.1 175.3 197.8 183.3 190.1 190.7C188.2 189.2 186.1 187.6 184.1 186C191.9 178.3 199.3 170.7 206.9 163ZM146.1 216.4C144.9 213.8 144 211.6 142.9 209.5C142.6 209 141.7 208.7 141 208.7H88.6996C88.0996 208.7 87.1996 208.8 86.9996 209.1C85.6996 211.4 84.5996 213.8 83.1996 216.5H109.6C109.4 218.6 109.2 220.5 109.1 222.5C109.1 224.2 108.4 224.7 106.7 224.7C98.3996 224.6 89.9996 224.7 81.6996 224.7C78.7996 224.7 78.3996 225 78.0996 228H152C150.7 224.2 150.7 224.2 147.1 224.2C139.9 224.3 132.8 224.3 125.6 224.4H120.2C120.2 222.5 120.3 220.9 120.2 219.3C120 217.1 120.7 216.3 123 216.4C130.6 216.5 138.1 216.4 146.1 216.4ZM109.6 21.6004H83.1996C84.4996 24.2004 85.4996 26.4004 86.7996 28.6004C86.9996 29.0004 87.8996 29.3004 88.4996 29.3004H140.8C141.4 29.3004 142.3 29.0004 142.5 28.5004C143.7 26.4004 144.8 24.1004 146.1 21.6004H143.4C136.4 21.6004 129.4 21.6004 122.4 21.5004C121.7 21.5004 120.4 20.8004 120.4 20.4004C120.2 18.2004 120.3 16.0004 120.3 13.8004H146.8C150 13.8004 150.9 13.1004 151.4 9.90039H77.3996C78.3996 13.6004 78.3996 13.6004 81.8996 13.6004H106.2C107 13.6004 107.8 13.7004 108.8 13.7004C109.1 16.4004 109.3 18.8004 109.6 21.6004Z" fill="white"/>
<path d="M130.1 108.2C123.5 101.6 117.6 95.6 111.3 89.4C108.2 96.4 105.2 103 102.1 110C95.7999 104.1 89.8999 98.7 83.8999 93C83.2999 97.3 82.6999 101 82.0999 104.7C81.9999 105.4 81.7999 106.1 81.5999 106.7C80.9999 108.4 80.2999 108.9 78.3999 107.7C73.6999 104.7 68.7999 101.9 63.6999 98.9C63.7999 101 63.9999 102.5 65.6999 103.6C69.1999 105.9 72.5999 108.3 76.0999 110.6C78.0999 111.9 80.1999 113.1 82.3999 114.5C84.2999 110.9 86.1999 107.4 88.0999 103.7C92.6999 107.3 97.2999 111 102.3 115C106.5 109.2 110.7 103.4 112.8 95.7C119.6 101 124 108 129.9 113.3C134.8 109.6 137.2 104.1 140.4 98.7C146.2 104 150.1 110.5 155.3 116.7C160.1 109.9 164.8 103.2 169.8 96.2C170 97.8 170.2 99 170.4 100.3C170.6 101.1 170.6 102.2 171.1 102.7C173.1 104.5 172.2 106.2 171.2 108C168.3 113.4 167.6 119.4 166.6 125.3C166.1 128.5 167.2 131.2 169 133.8C169.7 134.8 170.1 136.3 169.9 137.4C169.2 140.6 171.3 142.5 172.9 144.6C173.2 145 174.4 144.9 175 144.6C176.8 143.8 178.4 142.9 180.6 141.7C180.6 144.7 180.8 147.6 179.6 150.3C177.1 156.5 172.3 161 167.4 165.1C163.5 168.4 159.2 171.2 155 174.2C154.4 174.6 153.6 174.7 152.8 174.7C144.6 174.7 136.4 174.5 128.7 171.3C126.4 170.4 124.4 168.7 122.3 167.1C121.9 166.8 121.9 165.7 121.9 165.1C121.9 164.2 122.2 163.3 122.4 162.4H115.2C112.5 162.5 110 162.1 108.2 159.6C107.8 159.1 106.4 159 105.6 159.1C102.2 159.6 98.8999 160.3 95.4999 160.7C94.5999 160.8 93.4999 160 92.4999 159.5C91.8999 159.2 91.4999 158.5 90.9999 158C89.4999 156.6 88.0999 156.1 85.7999 156.3C80.8999 156.8 75.8999 156.7 70.8999 156.4C68.1999 156.3 66.4999 154.2 65.5999 151.7C64.9999 149.8 64.5999 147.8 64.3999 145.8C64.1999 144.1 63.4999 143.1 61.9999 142.4C55.3999 139 52.7999 133.4 53.1999 126.3C53.5999 120.8 54.6999 115.3 55.0999 109.8C55.3999 106.1 55.2999 102.3 54.8999 98.7C54.5999 95.5 55.3999 92.8 56.4999 89.9C58.2999 85 59.8999 80.1 61.5999 75.2C62.3999 73 63.0999 70.8 63.9999 68.2C65.7999 69.7 67.1999 71 68.7999 72.2C74.8999 76.6 83.5999 74.6 86.9999 67.9C89.1999 63.5 91.0999 59.1 93.0999 54.9C96.2999 57.9 99.6999 61.2 103.1 64.4C104 65.3 105.2 66.1 106.4 66.5C111.1 68.1 115.7 66.5 118.5 62C120 59.6 121.1 56.9 122.5 54C123.2 54.7 124.1 55.3 124.8 56.2C127.3 59.4 129.9 62.5 132.3 65.8C133.8 67.9 135.8 68.2 137.8 67.7C140.6 66.9 143.6 66.1 146 64.5C147.7 63.4 148.5 61.1 149.7 59.3C150.1 58.7 150.4 58 150.9 57C151.8 58.3 152.5 59.4 153.2 60.5C158.9 69.4 164 78.5 166.7 88.8C167.2 90.6 167.2 92.1 166.1 93.6C162.3 98.8 158.6 104.1 154.6 109.7C149.5 103.6 146 96.6 139.5 92.4C136.4 97.8 133.3 103 130.1 108.2ZM139.9 109.9C137 113.6 133.8 117.6 130.7 121.6C127.1 118.1 123.8 114.8 120.2 111.3C119.3 117.9 122 122.7 126 127C125.8 127.1 125.7 127.3 125.5 127.4C124 126.9 122.4 126.4 120.9 125.8C120.8 126 120.6 126.1 120.5 126.3C122.6 128.5 124.6 130.8 127.1 133.4C124.9 133 123.1 132.7 121 132.3C121.5 133.8 121.9 135 122.3 136.3C122.9 138.1 122.8 139.6 121 140.8C120.5 141.1 120.2 142.4 120.4 142.8C121.1 143.9 122 145.2 123.1 145.8C125.7 147.3 128.5 148.5 131.3 149.6C132 149.9 133.1 149.9 133.6 149.5C139.3 145.5 141.8 139.7 142.8 132.9C139 133.5 138.4 132.9 138.6 129.4C139.1 122.8 139.6 116.2 139.9 109.9ZM95.1999 132.5C97.4999 136.6 95.9999 139.8 93.3999 142.8C93.1999 143.1 93.2999 144.1 93.5999 144.4C95.9999 146.6 98.1999 149.1 100.9 150.9C104.9 153.5 105.3 153.4 108.4 150C111.1 147 113.3 143.5 115.5 140C116 139.2 116.9 137.2 114.3 137.1C114.1 137.1 113.7 136.4 113.6 136C113.2 133.9 112.5 131.7 112.6 129.6C113 124 113.7 118.5 114.4 112.9L114.7 109.6C114.5 109.5 114.3 109.5 114.1 109.4C110.8 114.7 107.5 120.1 104.3 125.4C100.3 122.2 96.3999 119.1 92.2999 115.7C92.8999 121.4 96.0999 124.7 99.9999 127.7C98.3999 127.4 96.6999 127 94.5999 126.5C96.2999 128.9 97.6999 130.8 99.3999 133.2C97.8999 133 96.7999 132.8 95.1999 132.5ZM147.9 136.2C147.3 138.6 146.6 140.8 146.1 143.1C146 143.5 146.1 144.3 146.4 144.5C149 146.3 151.6 148.1 154.3 149.6C154.9 149.9 156.4 149.5 156.9 148.9C159.4 146 161.8 143.1 164 139.9C165 138.5 165.3 136.6 166 134.8C161.6 134 160.6 132.6 161.3 128.6C162 124 162.9 119.4 163.8 114.4C160.7 117.9 158.8 121.8 154.7 123.7C151.9 120.7 149.2 117.8 146.6 114.9C146.4 115 146.2 115.1 146.1 115.3C146.3 118.2 145.9 121.4 146.8 124C147.7 126.5 150.1 128.5 152 130.8C150.6 130.7 149.2 130.5 147.2 130.3C149 132.7 150.5 134.7 152.4 137.2C150.5 136.8 149.2 136.5 147.9 136.2ZM72.6999 131.1C72.3999 132.3 72.4999 133.6 71.7999 134.4C70.5999 135.8 71.0999 136.9 71.8999 138C72.6999 139.1 73.5999 140.3 74.7999 141C77.5999 142.7 80.4999 144.2 83.3999 145.7C83.7999 145.9 84.8999 145.6 85.2999 145.2C87.6999 142.5 89.2999 139.3 90.0999 135.8C90.3999 134.4 90.6999 133.3 89.4999 132C88.4999 130.9 87.9999 129.1 87.6999 127.5C87.0999 124.3 86.8999 121.1 86.4999 117.9C86.2999 117.8 86.0999 117.6 85.9999 117.5C85.8999 117.8 85.8999 118.2 85.6999 118.4C83.1999 121.2 83.1999 121.2 79.8999 119.5C76.2999 117.7 72.7999 115.8 69.0999 113.8C69.5999 120.5 75.4999 121.9 80.0999 125.6C77.1999 125.3 74.9999 125.1 72.7999 124.8C72.5999 125 72.3999 125.3 72.2999 125.5L77.9999 130.3C77.8999 130.5 77.7999 130.7 77.6999 130.8C75.8999 130.9 74.2999 131 72.6999 131.1ZM123.7 61.2C125.9 74.1 128 86.8 130.2 99.8C133.1 95 135.7 90.3 137.3 85.1C137.5 84.6 137.2 83.9 137.1 83.3C134.4 74.9 129.5 67.9 123.7 61.2ZM101.1 99.4C101.1 99.4 101.4 99.3 101.4 99.1C103.5 94.2 105.5 89.4 107.5 84.4C107.9 83.5 107.9 82.2 107.6 81.3C105.3 74 100.4 68.4 95.8999 62.4C97.5999 74.9 99.3999 87.2 101.1 99.4ZM154.4 101.7C157.1 98.2 159.6 95 162 91.7C162.4 91.1 162.3 89.9 162.1 89.1C160.5 84.4 159 79.7 157.1 75.1C156.2 72.8 154.5 70.8 153.2 68.7C152.9 68.8 152.7 68.9 152.4 69C153 79.7 153.7 90.4 154.4 101.7ZM146.8 150.9C143 151.5 138.9 150.9 135.5 153.5C131.7 156.3 129.8 160.4 127.8 164.4C127.1 165.8 127.8 166.5 129 166.8C134.1 168.2 139.1 169.6 144.2 170.9C144.8 171.1 145.5 170.7 146.2 170.6C146.2 170.5 146.2 170.4 146.1 170.2C142.1 168.9 138.1 167.5 133.8 166.1C137.2 160 141.9 155.5 146.8 150.9ZM78.3999 102.1C79.0999 97.7 79.6999 93.9 80.2999 90.1C80.2999 89.8 80.0999 89.5 79.9999 89.2C76.6999 83.4 71.6999 79.4 66.1999 75.9C70.0999 84.5 74.0999 93 78.3999 102.1ZM140.6 80.2C141.7 77.6 142.5 75.5 143.4 73.3C141.2 73.5 139.5 73.7 137.6 73.9C138.6 75.8 139.5 77.8 140.6 80.2ZM85.1999 80.6C83.0999 81.3 81.4999 81.9 79.5999 82.6C80.7999 84 81.6999 85.1 82.8999 86.6C83.7999 84.3 84.3999 82.6 85.1999 80.6ZM166 144.2C164.6 145.8 163.4 147.2 162.3 148.6C162.5 148.8 162.6 149 162.8 149.2C164.4 148.7 166 148.2 167.8 147.6C167.1 146.4 166.6 145.5 166 144.2ZM110.7 78.3C111.4 76.5 111.9 75.2 112.6 73.6C111.1 73.8 109.9 74 108.5 74.1C109.3 75.5 109.9 76.7 110.7 78.3Z" fill="white"/>
</svg>
