<svg width="157" height="157" viewBox="0 0 648 643" fill="none" xmlns="http://www.w3.org/2000/svg">
<path d="M323.1 642.7C322.2 637.3 321.5 631.9 320.5 626.5C316.3 603.5 312 580.6 307.9 557.7C302.2 526 296.8 494.3 291.1 462.7C288.8 449.9 287 436.9 282.9 424.7C280.3 416.9 280.1 412 286.1 406C293 399 294.8 389.3 295.2 379.7C295.5 371.9 295.8 364 295.1 356.2C294.6 351 292.4 345.9 290.6 339.4C288.5 341.7 287.8 342.5 287.1 343.3C276.8 355.5 266.3 367.5 256.4 379.9C251.1 386.5 245.8 393.4 242.2 400.9C231.1 424.3 230.3 449.2 234.8 474.3C237.7 490.4 241.7 506.2 250.2 520.5C224.1 495 203.5 465.5 189.9 431.8C174 392.6 167.5 353.2 174.6 324.7C175.3 325.9 176 327.1 176.5 328.4C182.2 344.9 193.3 355.7 210.1 360.5C220.1 363.4 238.6 359.8 243.9 345.7C222.7 338.7 213.4 320.7 204.6 302.4C199 290.8 196.3 268.8 199.2 258.6C212.9 279.8 227.8 299.3 252 310.6C246.5 294.8 248.4 279.4 249.6 264C249.6 262.1 249 260.2 247.8 258.6C239 248.3 230.3 238 221.2 228C214.3 220.5 203.6 221 198.1 229.7C194.4 235.4 191.6 241.7 190 248.4C185.8 266.5 186 284.9 191.8 302.7C194.2 310.2 198.3 317.2 201.7 324.5C202.8 326.7 204 328.9 205.5 331.8C198.3 331.7 193.2 328.1 188.5 324.4C180.2 317.9 174.5 309.5 170.2 299.8C159.2 274.6 150.2 248.6 143.4 221.9C142.4 218 139.2 216.9 136 220.3C131.3 225.1 126.2 230.2 123.3 236.1C112 258.9 107.5 283.4 107 308.7C106.7 324.8 106.9 341 106.9 357.3C103.3 352.8 99.2003 348.1 95.6003 343.1C80.5003 321.9 73.0003 298 70.9003 272.3C70.7003 269.8 70.2003 267.4 69.4003 265C66.8003 257.5 60.1003 255.5 54.8003 261.4C49.8003 266.9 44.8003 273 42.2003 279.7C31.4003 306.9 26.1003 335.6 21.0003 364.4C17.0003 386.1 17.3003 408 17.7003 430C17.8003 431.9 17.6003 433.8 17.0003 435.6C16.5003 434.5 16.1003 433.4 15.8003 432.3C12.7003 420 9.40032 407.8 6.50032 395.5C1.20032 373.4 -0.79968 350.7 0.40032 328.1C1.60032 305.5 3.50032 282.9 6.20032 260.5C8.50032 241.8 13.2003 223.4 20.2003 206C26.2003 190.7 31.6003 175.1 38.5003 160.1C43.8003 148.7 50.9003 138.1 57.2003 127.1C67.7003 108.9 80.2003 91.9996 94.5003 76.5996C107.2 62.8996 120.6 49.8996 134.4 37.3996C148.8 24.2996 164.7 12.8996 181.8 3.39961C184.7 1.79961 188.1 1.19961 191.2 0.0996094L192.1 1.69961C190.9 2.89961 189.6 3.99961 188.3 4.99961C173.2 14.1996 163.1 27.9996 153.3 42.1996C145.5 53.3996 139.3 65.4996 137.5 79.0996C134.5 101.6 140.9 121.4 159.1 135.4C165.6 140.4 174.8 142.8 183.1 144.5C199.3 147.9 215.4 147.1 231 139.8C239.8 135.7 249.4 133.1 258.6 129.9C259.6 129.5 260.8 129.4 263.3 128.8C262.1 130.9 261.8 132.3 260.8 132.9C243.8 144.7 235.6 161.6 234.7 181.6C233.7 203.6 242.6 222.8 255.5 240.7C262.7 228.6 270.4 217.4 283.1 210.8C281.5 213.6 279.8 216.4 278.3 219.3C272.1 231.1 271 244 272.6 256.8C273.2 262.2 276.8 267.8 280.5 272C284.9 277 290.7 280.9 296.3 284.7C305.4 290.9 311.9 287.7 312.3 275.9C312.8 261.8 311.3 247.7 310.2 233.5C309.9 229.6 308.1 225.9 306.9 222.1L305.5 222.5C303.9 229 302.2 235.5 300.3 242.8C296.3 233.2 293 224.5 289 216.2C285.4 208.6 281.5 201 273.7 196.3C269.8 194 266.4 192.6 262.1 195.1C261 195.6 259.8 195.9 258.5 196C258.3 195.3 258.2 195.1 258.3 195C266.3 181.6 267.6 166.4 270.1 151.5C272.6 136.4 280.5 124.8 293.5 114.4C291.4 118.8 290 122 288.5 125.1C283.3 136.1 283.6 147.7 284.8 159.4C285.2 163.3 287.1 167.3 291.1 167.3C293.7 167.3 296.5 164.3 298.9 162.3C300.3 161.2 301.1 159.5 303 158C302.8 167.5 302.6 176.8 310.4 184.7C313.8 177.7 317.1 170.9 320.5 164.2C321.4 162.7 322.4 161.3 323.5 159.9C324.7 161.3 326.1 162.6 327 164.2C330.4 170.8 333.6 177.6 337 184.7C344.8 176.9 344.9 167.8 343.7 158.3L345 158.1C346.4 159.8 347.5 161.9 349.1 163.2C351.3 165 354.3 167.8 356.3 167.3C358.7 166.7 361.7 163.4 362.1 160.8C364.3 148.9 364.1 136.9 359.1 125.6C357.6 122.3 356 119.1 353.9 114.8C365.5 123.3 372.8 133.5 376.1 146.3C377.9 153.2 378.2 160.5 380 167.4C382.3 176 385.5 184.4 388.3 192.9C388.6 193.8 388.9 194.7 389.3 195.7C388.8 195.9 388.2 196.1 387.6 196.1C384.1 195.6 380.2 193.8 377.3 194.9C371.1 197.1 366 201.7 363.2 207.8C358.2 218.5 353.6 229.3 348.8 240.1C348.5 240.8 348.2 241.5 347.2 243.5C345.2 235.8 343.6 229.3 341.9 222.8L340.9 222.4C339.7 225.4 337.8 228.3 337.5 231.3C336.3 245.6 335.6 259.9 334.7 274.2C334.6 275.9 334.8 277.6 335.1 279.2C337.2 287.9 342.1 290 349.8 285.9C358.6 281.2 365.9 275 371.3 266.4C376.9 257.5 375.1 248.1 374.5 238.7C373.9 229.3 370.4 220.9 365.1 213.2C364.6 212.5 364.4 211.6 364.6 210.8C376.7 217.8 384.5 228.8 391.6 241.1C404.4 223.6 413 204.7 412.5 183C412 161.1 401.6 143.8 383.9 130.7L385.1 129.5C387.4 130.1 389.7 130.6 391.9 131.4C402.8 135.4 413.6 139.6 424.6 143.3C443 149.4 461 147.2 478.8 140.4C499.4 132.6 506.3 115.4 509.9 95.7996C513 78.9996 505 65.2996 497.9 51.3996C490.8 37.4996 481 25.4996 470.6 14.1996C467.9 11.2996 464.5 9.09961 461.3 6.69961C459.4 5.09961 457.3 3.59961 455.2 2.09961L455.7 0.499609C458.4 1.09961 461.3 1.29961 463.7 2.49961C480.7 11.5996 496.6 22.7996 510.9 35.7996C526 49.2996 540.4 63.6996 554.3 78.5996C568.5 93.8996 580.8 110.8 591 129C598.9 142.9 607.2 156.6 613.9 171.1C619.6 183.3 623.4 196.3 628 209C642 246.7 645 286.1 646.9 325.8C648.7 363.2 640.4 398.9 630.9 434.5C630.5 435.2 630.1 435.8 629.6 436.4C629.5 434.5 629.3 433.3 629.3 432.1C629.3 419.4 630.6 406.6 629.1 394.1C626.4 370.8 622.8 347.6 618.2 324.6C615.1 309.3 610.3 294.3 604.9 279.6C602.4 272.8 597.3 266.7 592.3 261.3C587 255.4 579.6 257.3 577.8 265C575.6 274.3 575 284.1 573.1 293.5C568.5 315.9 557 339.7 539.2 357.7C539.4 354.8 539.7 352.5 539.8 350.1C541.7 318.3 541.2 286.7 531.8 256C528.2 244.4 524.4 232.7 515.1 224C514 223 513.1 221.8 511.9 220.8C507.3 216.9 504.7 217.7 503.2 223.4C496.3 250.5 487.1 277 475.6 302.5C470.2 314.5 461.7 324.5 449.1 330C447.9 330.5 446.6 331 445.3 331.3C444.1 331.5 442.9 331.7 441.7 331.8C445.2 324.6 448.2 317.9 451.6 311.4C458.6 298.1 459.9 283.7 459.6 269.2C459.4 257.6 457.7 246 452.5 235.2C447.9 225.7 440.7 221.3 432.4 223.9C430.2 224.6 428.2 225.8 426.5 227.4C417.1 237.9 407.9 248.5 398.9 259.1C397.7 260.5 397.5 263 397.5 265C397.6 275.8 398.1 286.6 397.9 297.4C397.8 301.6 396.3 305.8 395.4 310.4C419.1 299.3 434.1 279.9 447.8 258.5C454.7 287.8 431.5 338.1 402.7 345.8C406.1 352.8 412.3 357.9 419.7 360C440 366.3 461.2 350.8 468.6 333.6C469.8 330.9 470.7 328.1 471.8 325.4L473.2 325.5C473.8 330.6 474.7 335.7 475 340.9C476.5 366.4 471 390.9 463.4 415C455 441.7 441.7 465.8 425.2 488.1C417.8 498.1 409.4 507.5 401.5 517C400.2 518.5 398.6 519.7 396.9 520.5C405.5 506.1 409.6 490.4 412.4 474.3C416.8 449.6 415.9 425.2 405.6 401.8C401.3 392.1 394.9 384.1 387.3 376.5C378 367.1 370.2 356.1 361.8 345.8C360.6 344.3 359.6 342.6 357.7 339.8C355.9 343.6 353.7 346.3 353.2 349.3C350.9 364.7 350 380.2 355.2 395.2C357.1 400.7 361 405.6 364.6 410.2C367 413.3 367.3 415.6 366.1 419.6C362.8 429.9 360.2 440.4 358.2 451C348.1 505.9 338.1 560.8 328.3 615.8C327.1 622.7 326.4 629.7 325.4 636.6C325.1 638.7 324.5 640.8 324 642.9L323.1 642.7Z" fill="white"/>
</svg>
