<svg width="157" height="157" viewBox="0 0 157 157" fill="none" xmlns="http://www.w3.org/2000/svg">
<mask id="mask0_1350_1119" style="mask-type:luminance" maskUnits="userSpaceOnUse" x="0" y="0" width="157" height="157">
<path d="M0 7.29533e-06H157V157H0V7.29533e-06Z" fill="white"/>
</mask>
<g mask="url(#mask0_1350_1119)">
<path d="M66.354 78.6501C65.346 77.8858 57.9907 71.8576 66.446 64.6153C66.4582 64.6042 66.4648 64.5987 66.477 64.5887C66.6376 64.4613 68.3236 63.1298 69.4911 62.4519C69.9453 62.1882 70.5246 62.4198 70.6598 62.9282C71.3787 65.6333 73.6584 73.8637 75.3676 76.15C75.6224 76.4923 75.5747 76.9719 75.2446 77.2422C73.994 78.2658 70.9444 80.1456 66.5999 78.7753C66.5113 78.7476 66.4282 78.7066 66.354 78.6501ZM108.072 79.4555C108.072 79.4555 106.055 73.4516 100.271 71.3569C100.271 71.3569 95.6378 69.3297 96.3623 64.6275C96.3623 64.6275 96.6503 60.6009 89.614 63.0955C89.5852 63.1054 89.5575 63.1165 89.5309 63.1298C88.9173 63.4355 80.5163 67.4699 74.3806 62.2824C74.3806 62.2824 69.8079 57.8781 67.5194 59.1464C67.4462 59.1874 67.3831 59.2406 67.3244 59.3004C66.7163 59.9229 63.0453 63.6781 61.4413 65.3187C60.9616 65.8105 60.3036 66.0808 59.6169 66.0719L54.8802 66.0121C54.6698 66.0099 54.4693 65.9246 54.3197 65.7762L53.7437 65.2001C53.2884 64.7438 52.4975 64.9731 52.379 65.6067C52.2893 66.0896 52.3147 66.8374 52.5806 67.9916C52.6005 68.0747 52.6083 68.1611 52.5994 68.2453C52.5152 69.1027 52.0123 74.2059 51.7686 76.6784C51.6811 77.5668 51.3322 78.4064 50.7584 79.091C49.0802 81.096 45.4358 85.2178 43.7498 85.3353C43.7498 85.3353 41.6651 85.4316 40.6892 88.1921C40.6892 88.1921 37.3305 100.569 42.9678 106.611L46.8647 110.849C48.4709 112.597 50.3851 114.032 52.5186 115.074C55.8894 116.723 60.9517 119.101 63.125 119.623C63.5404 119.722 63.9514 119.455 64.05 119.038C64.4521 117.326 65.7891 112.875 69.0646 111.254C69.3504 111.113 69.5443 110.842 69.5443 110.524V109.303C69.5443 108.664 69.1023 108.282 68.6116 108.366C65.7071 108.87 56.5629 109.319 49.0049 97.3098C47.5371 94.9769 46.8016 92.2153 47.1073 89.4759C47.2513 88.1899 47.6191 87.0356 48.4222 86.6036C48.5307 86.546 48.6515 86.5272 48.7744 86.5305C49.1555 86.5405 50.0317 86.6324 50.888 87.2051C51.6191 87.6936 52.4875 87.9329 53.366 87.9018C56.2383 87.8033 62.1247 87.2339 65.6562 84.3549C67.1128 83.1674 68.76 82.2447 70.5401 81.641C73.2718 80.7149 76.9804 79.8099 79.5382 80.5654C80.0832 80.726 80.6093 80.294 80.554 79.728C80.246 76.5366 80.3634 68.7238 88.2681 65.7463C88.3147 65.7285 88.3579 65.7152 88.4077 65.7053C88.8552 65.6166 91.4384 65.1038 92.873 64.8191C93.3714 64.7194 93.8333 65.1027 93.8333 65.6111V79.471C93.8333 79.5673 93.8167 79.6571 93.7846 79.7468C93.5487 80.407 92.3678 83.1242 88.6536 84.0392C88.0566 84.1865 87.8705 84.9542 88.3147 85.3796C90.4061 87.3834 94.4415 91.7889 93.8422 95.4466C93.8356 95.4842 93.8278 95.5186 93.8167 95.5551C93.6528 96.0835 92.3169 100.317 90.8292 102.768C90.4847 103.336 90.9455 104.054 91.6057 103.977C94.7295 103.617 101.19 102.221 105.543 96.8035C105.543 96.8035 112.773 90.2968 108.072 79.4555Z" fill="white"/>
<path d="M64.6785 93.4391C64.6785 93.4391 67.2097 86.6421 77.578 87.371C77.578 87.371 83.0202 88.3004 84.1667 91.2891C84.1667 91.2891 73.8405 87.4464 70.8164 92.4677C70.8164 92.4677 68.9433 97.3228 65.7885 95.5549C65.7885 95.5549 64.2975 94.8604 64.6785 93.4391Z" fill="white"/>
<path d="M44.4341 69.5539C44.4341 69.5539 38.5588 61.8098 32.885 64.7475C32.885 64.7475 28.2525 67.7649 31.3286 73.1374C31.3286 73.1374 33.4411 78.3714 40.145 76.2135C40.145 76.2135 42.4402 74.6982 42.6241 73.504V79.2553C42.6241 79.2553 34.4535 83.6519 30.2741 77.5904C30.2741 77.5904 20.4929 68.1327 24.258 60.4639C24.258 60.4639 28.299 54.6328 28.299 54.449C28.299 54.2662 29.4001 44.8527 29.4001 44.8527L30.5023 46.5066L31.2998 51.8979C31.5413 53.5307 32.2447 55.0571 33.3314 56.3C34.8146 57.9981 36.957 60.2025 38.3826 60.5902C38.9819 60.7541 39.5524 60.9779 40.0852 61.298C42.0547 62.4844 45.5928 65.277 44.4341 69.5539Z" fill="white"/>
<path d="M59.2327 55.5505C59.2327 55.5505 57.2487 59.0476 55.7876 59.5693C55.7876 59.5693 43.4166 59.4652 41.5899 50.4871C41.5899 50.4871 39.3911 39.9759 43.6725 34.0119C44.5154 32.8366 45.0937 31.4996 45.3163 30.0706C45.8126 26.8904 46.8793 21.6087 48.6362 20.3171H49.5235L49.9278 26.3033C50.0541 28.1753 51.0266 29.8856 52.5675 30.9546C54.2457 32.1199 56.316 33.6065 57.1446 34.4107C57.1446 34.4107 65.3916 40.8311 64.0346 46.6245C64.0346 46.6245 61.6342 52.9928 55.4741 51.062C55.4741 51.062 52.9685 49.7039 53.3861 48.399C53.3861 48.399 57.5101 48.4522 57.9798 46.4683C57.9798 46.4683 59.0765 42.5647 56.1632 40.4666C55.493 39.9837 54.8439 39.4741 54.3011 38.8516C53.9488 38.4472 53.56 37.9942 53.2399 37.6032C52.7935 37.0604 52.1454 36.7292 51.4442 36.6815L50.3155 36.6073C49.1911 36.532 48.254 36.9562 47.6968 37.7427C46.4008 39.5727 44.4612 43.1639 45.9222 46.7818C45.9222 46.7818 47.2028 50.0285 49.4958 52.4256C50.7641 53.7516 52.4567 54.5957 54.2734 54.8515L59.2327 55.5505Z" fill="white"/>
<path d="M73.6909 7.84949H76.2242C76.798 7.84949 77.3475 8.08101 77.7463 8.49419C80.6053 11.4618 92.2397 24.0699 93.0484 33.593C93.0484 33.593 97.5911 55.7154 83.3691 57.7569C83.3691 57.7569 74.947 59.1792 72.5455 50.1734C72.1722 48.7722 72.2874 47.2723 72.9 45.9585C74.2193 43.1305 77.2323 38.4803 82.2503 40.3091C82.2503 40.3091 75.5452 42.9045 76.4436 47.6057C76.6463 48.6614 77.4594 49.5132 78.4818 49.8422C80.3572 50.447 83.6117 50.5368 86.0032 45.4446C86.0032 45.4446 90.2824 35.3056 83.8299 30.7617C83.8299 30.7617 78.1018 27.0087 73.2954 38.3994C73.2954 38.3994 72.9011 30.3009 76.5876 26.6143L78.433 24.2416C79.0301 23.4739 79.3602 22.5324 79.3735 21.5609L79.4477 16.0001C79.4743 14.0539 78.8063 12.1574 77.5413 10.6775C76.3671 9.30283 74.8728 7.88383 73.6909 7.84949Z" fill="white"/>
<path d="M100.884 59.5692C100.884 59.5692 97.1305 52.1607 99.7647 49.922C99.7647 49.922 106.523 41.8046 110.977 39.8794C110.977 39.8794 113.122 39.1649 113.231 36.4155C113.231 36.4155 113.616 28.6637 108.888 25.1445L109.664 24.0999C109.664 24.0999 116.9 28.266 120.971 37.4003C121.369 38.292 121.589 39.2569 121.589 40.2328V50.3662C121.589 51.9414 121.805 53.5155 122.305 55.0087C122.812 56.5241 123.227 58.7273 122.139 60.2781C122.139 60.2781 116.695 70.5047 108.613 65.4468C108.613 65.4468 104.492 62.2964 105.393 57.6218C105.683 56.1142 106.532 54.7772 107.642 53.716C109.04 52.379 111.233 50.7971 112.736 52.1962C112.736 52.1962 106.908 55.8251 109.437 59.8938C109.437 59.8938 113.35 66.1845 118.219 55.7498C118.45 55.2568 118.604 54.7296 118.679 54.1901C118.987 51.9879 119.134 46.5512 113.231 45.983C113.231 45.983 107.569 45.048 104.599 51.2613C104.599 51.2613 101.292 56.2759 100.884 59.5692Z" fill="white"/>
<path d="M20.2641 91.8673C22.2746 96.3414 28.9786 109.686 39.4809 114.931C40.3494 115.364 41.2555 115.698 42.1937 115.946C45.2998 116.766 54.7387 119.573 60.511 124.704C60.511 124.704 68.9076 131.125 65.3086 139.169L60.511 146.014C60.511 146.014 61.2455 140.012 60.6041 137.138C60.5687 136.977 60.3416 136.973 60.3006 137.131C59.5772 139.869 55.8896 151.382 45.5501 148.767L44.7747 148.413C44.7747 148.413 54.0187 142.627 55.5706 136.205C55.5706 136.205 56.0646 134.088 52.1843 136.841C52.1843 136.841 43.4089 148.188 31.4732 139.816C31.0389 139.512 31.2173 138.823 31.7468 138.776C35.8919 138.415 47.3136 137.014 49.8138 132.405C49.8891 132.265 49.8979 132.098 49.8503 131.946L49.2422 130.028C49.127 129.664 48.7049 129.506 48.3826 129.708C47.4842 130.272 45.6598 131.296 43.1541 132.093C35.5961 134.495 27.3258 132.483 21.4527 127.155C18.7809 124.73 15.7069 121.563 14.6446 119.001C14.3544 118.301 15.1852 117.665 15.8 118.109C19.893 121.067 31.8564 128.346 46.0442 124.492L45.806 123.634C45.7395 123.392 45.5302 123.221 45.2798 123.213C42.5759 123.113 27.2417 121.907 19.5784 107.326C18.9559 106.14 18.6258 104.823 18.5781 103.485C18.4718 100.523 18.3721 94.9302 18.9836 92.0213C19.1198 91.3733 19.9927 91.2636 20.2641 91.8673Z" fill="white"/>
<path d="M121.233 120.604C118.54 123.338 113.407 127.157 106.942 125.331C106.942 125.331 99.3643 115.716 91.1683 122.261C91.1683 122.261 83.7421 125.661 86.8637 133.443C87.4076 134.797 88.5507 135.821 89.9365 136.28C91.9791 136.958 94.9534 137.573 96.0633 135.921C96.1475 135.794 88.4798 133.646 91.9127 128.883C93.0558 127.294 94.8913 126.337 96.8432 126.197C98.9212 126.05 101.518 126.505 102.329 129.433C102.329 129.433 107.513 136.316 98.9113 141.617C98.9113 141.617 93.8933 145.706 87.8961 144.688C83.4774 143.936 80.0755 140.414 78.9855 136.066C77.9487 131.929 77.5278 125.547 81.8911 119.471C81.8911 119.471 91.854 107.461 98.4571 112.752C98.4571 112.752 102.744 113.975 106.901 110.505C107.583 109.938 108.314 109.433 109.099 109.02C111.158 107.934 115.272 105.115 116.36 99.5012C116.532 98.6162 116.889 97.7831 117.344 97.0055C118.358 95.2708 120.184 92.8416 122.241 93.3246C122.658 93.4231 122.98 93.7588 123.101 94.1697C123.371 95.0869 123.624 96.8405 122.079 97.895C122.079 97.895 119.464 98.6306 120.249 104.7C120.349 105.471 120.331 106.253 120.235 107.024C120.081 108.262 119.261 110.107 119.091 107.86C119.091 107.86 118.604 112.019 121.452 107.973C121.452 107.973 123.045 104.672 123.306 107.858V115.442C123.306 117.367 122.583 119.234 121.233 120.604ZM136.318 82.9662C132.583 82.5375 124.9 82.3935 119.618 87.314C119.618 87.314 115.485 91.3871 112.022 98.7214C111.522 99.7826 110.809 100.73 109.939 101.517C107.059 104.124 100.423 109.471 95.4452 108.456C95.4452 108.456 86.034 107.691 79.4297 114.093C78.3575 115.132 77.6696 116.509 77.4524 117.987L76.9772 121.208C76.9772 121.208 74.3708 119.287 72.8654 120.186C72.8654 120.186 70.5967 132.61 73.551 138.575C73.551 138.575 79.1107 148.325 90.5701 147.911C90.5701 147.911 103.883 147.563 107.319 142.012L108.275 141.317L104.366 141.114C104.366 141.114 109.588 137.205 108.275 130.958C108.275 130.958 113.903 131.026 114.8 129.308V132.745C114.8 132.745 111.297 134.183 110.679 136.306C110.679 136.306 124.204 132.127 127.91 120.388C127.91 120.388 133.404 107.549 130.932 97.5284L129.696 98.2905C129.696 98.2905 127.623 89.442 136.394 87.6253C138.25 87.2409 140.217 87.8524 141.397 89.3367C141.842 89.8984 142.104 90.4788 141.85 90.9352C141.956 90.7524 143.397 88.2944 141.215 85.5672C140.017 84.0717 138.222 83.1844 136.318 82.9662Z" fill="white"/>
</g>
</svg>
