<svg width="294" height="291" viewBox="0 0 294 291" fill="none" xmlns="http://www.w3.org/2000/svg">
<path d="M205.335 1.53241C205.335 2.19907 206.535 3.13241 207.869 3.66574C209.202 4.06574 213.202 6.99907 216.535 10.1991C222.135 15.3991 222.669 16.3324 222.669 22.0657C222.669 27.6657 223.069 28.3324 226.002 29.1324C236.935 31.9324 234.802 54.7324 222.802 62.5991C211.869 69.9324 198.668 70.3324 186.002 63.6657C178.135 59.6657 177.335 59.3991 179.202 62.0657C184.002 68.4657 185.868 74.5991 186.402 84.9991C186.802 95.2657 186.668 96.0657 181.335 106.599C175.868 117.532 168.002 126.199 159.735 130.466C156.668 132.066 155.602 132.066 153.335 130.732C150.935 129.266 150.668 127.666 150.668 116.066C150.668 108.332 151.202 102.999 152.002 102.999C152.668 102.999 153.602 101.532 154.135 99.6657C155.335 94.8657 157.735 97.1324 157.068 102.466C156.802 104.999 156.935 106.999 157.335 106.999C158.802 106.999 165.602 94.3324 166.268 90.0657C167.068 84.9991 168.002 84.7324 172.935 87.9324C176.402 90.3324 176.535 90.1991 175.468 87.6657C174.802 86.1991 173.735 81.3991 173.202 76.9991C171.468 65.9324 169.735 61.2657 166.002 57.6657C162.268 54.1991 161.735 55.2657 164.668 60.3324C167.068 64.5991 167.202 73.7991 164.935 76.9991C163.202 79.2657 162.802 79.1324 158.002 74.1991C154.002 70.0657 153.468 69.6657 155.202 72.7324C158.135 77.5324 157.602 84.8657 154.268 85.3991C152.002 85.9324 151.468 85.1324 150.002 78.5991C148.935 73.1324 144.802 74.3324 144.002 80.3324C143.468 83.9324 142.668 84.9991 140.668 84.9991C137.202 84.9991 136.268 77.5324 139.335 72.8657C142.668 67.7991 139.335 69.1324 135.868 74.3324C132.135 79.7991 131.335 79.9324 129.202 76.0657C127.068 72.0657 127.468 63.3991 130.002 59.3991C133.202 54.5991 131.068 53.7991 127.335 58.3324C123.735 62.8657 121.335 70.9991 121.335 78.8657C121.335 81.7991 120.802 84.5991 120.002 84.9991C119.335 85.3991 118.668 86.7324 118.668 87.9324C118.668 89.7991 119.068 89.7991 122.002 87.7991C126.402 84.8657 127.735 85.1324 127.602 88.8657C127.602 92.4657 134.668 105.932 136.935 106.599C137.735 106.866 138.002 105.666 137.735 103.799C137.335 101.932 137.468 99.3991 137.868 98.1991C139.468 94.1991 144.002 105.399 144.002 112.999C144.002 130.999 140.802 134.866 131.602 128.466C119.335 120.066 111.068 107.399 107.868 92.5991C106.135 83.6657 108.002 73.5324 113.202 65.3991L117.068 59.3991L108.402 63.7991C101.602 67.3991 98.2685 68.3324 92.4018 68.3324C73.8685 68.3324 61.3352 58.1991 61.3352 43.1324C61.3352 35.3991 63.4685 30.9991 68.0018 29.5324C71.7352 28.1991 72.0018 27.5324 72.0018 21.7991C72.0018 16.4657 72.6685 14.8657 76.4018 11.3991C78.6685 9.13241 82.8018 5.93241 85.3352 4.33241L90.0018 1.39907L84.9352 2.19907C81.8685 2.59907 76.5352 5.26574 71.6018 8.73241C61.2018 16.1991 36.9352 41.1324 29.7352 51.6657C17.4685 69.9324 6.80182 95.7991 3.06849 116.866C0.00182313 134.732 0.00182313 170.066 3.33516 182.332C4.66849 187.399 6.13516 192.066 6.53516 192.599C6.93516 193.132 7.33516 188.866 7.46849 183.266C7.60182 171.399 11.2018 148.732 14.8018 136.732C16.2685 132.199 19.4685 125.666 22.0018 122.332C24.5352 118.999 26.6685 115.532 26.6685 114.466C26.6685 109.132 34.9352 81.1324 38.6685 73.6657C45.3352 60.4657 53.3352 48.3324 55.4685 48.3324C57.6018 48.3324 58.0018 50.4657 56.0018 51.6657C53.6018 53.1324 46.6685 68.0657 40.4018 85.3991C34.8018 100.999 34.2685 103.532 33.7352 118.332C33.0685 132.066 33.4685 135.399 35.7352 141.932C38.2685 149.266 45.8685 161.666 47.7352 161.666C48.2685 161.666 48.5352 154.066 48.2685 144.732C47.8685 126.332 49.3352 118.732 55.4685 109.266C58.5352 104.466 58.6685 103.799 57.3352 96.0657C56.0018 88.8657 56.4018 74.3324 58.1352 67.9324C59.6018 62.9991 61.3352 66.0657 61.3352 73.5324C61.3352 83.5324 64.0018 97.7991 69.2018 115.132C74.4018 132.466 78.1352 139.666 84.5352 145.132C92.2685 151.799 93.8685 150.999 89.6018 142.732C86.5352 136.732 86.0018 133.932 85.6018 121.666L85.0685 107.532L89.3352 103.932C96.0018 98.1991 96.5352 98.4657 109.068 113.532C113.868 119.266 114.668 120.999 114.002 124.199C113.602 126.332 114.135 130.466 115.202 133.799C116.402 136.999 117.335 140.466 117.335 141.266C117.335 147.799 100.802 134.866 95.3352 124.066L91.7352 116.999L92.4018 126.332C93.0685 138.199 96.8018 145.666 105.735 153.932L112.668 160.332L109.468 162.999C107.335 164.866 104.402 165.666 100.135 165.666C93.0685 165.666 88.2685 162.999 83.3352 156.332L80.1352 151.932L79.2018 155.532C78.8018 157.532 78.6685 164.066 78.9352 170.066C79.7352 183.532 84.2685 196.866 92.8018 211.132C98.8018 220.866 110.402 235.666 111.468 234.732C111.735 234.466 110.402 230.066 108.535 224.999C105.468 216.866 105.202 214.066 105.602 202.999C106.002 192.599 106.802 188.999 109.868 182.599C115.602 170.732 120.002 167.932 120.002 176.066C120.002 179.799 124.135 190.999 125.468 190.999C126.002 190.999 126.668 188.599 127.202 185.799C127.602 182.866 129.202 177.666 130.802 174.066L133.468 167.666L129.202 164.066C125.335 160.732 124.535 160.599 122.668 162.332C119.735 164.999 118.668 164.866 118.668 161.799C118.668 160.466 116.935 157.399 114.668 154.999C110.668 150.732 109.068 145.932 112.402 147.932C113.335 148.466 119.868 152.466 127.068 156.866L140.002 164.599V173.266C140.002 182.332 137.602 189.799 133.202 194.466L130.535 197.266L138.668 243.799C143.202 269.399 147.068 290.466 147.335 290.732C147.468 290.999 148.135 288.199 148.668 284.732C149.068 281.266 152.802 260.066 156.802 237.666C163.868 197.532 163.868 197.132 161.335 194.332C157.068 189.799 154.668 182.199 154.668 173.132V164.466L169.068 155.799C183.602 146.999 187.602 146.466 180.135 154.199C177.868 156.599 176.002 159.799 176.002 161.399C176.002 164.866 175.068 165.132 172.135 162.466C170.268 160.732 169.468 160.866 165.602 163.266C160.802 166.199 160.402 168.066 163.335 173.666C164.402 175.799 166.135 180.732 167.202 184.599L168.935 191.666L171.868 185.399C173.335 181.932 174.668 177.666 174.668 175.799C174.668 168.066 179.202 171.399 184.535 182.999C186.802 188.199 188.002 193.932 188.668 202.332C189.335 212.999 189.068 215.399 186.135 224.199C182.002 235.932 182.002 235.799 184.802 233.532C189.202 229.932 199.068 215.932 204.802 205.132C213.602 188.466 218.269 166.732 215.202 155.399C214.535 152.866 213.869 153.132 208.135 159.132C202.269 165.266 201.469 165.666 195.068 165.666C190.268 165.666 187.335 164.866 185.202 162.999L182.002 160.332L189.068 153.799C197.602 145.799 201.202 138.066 202.135 126.066L202.802 116.999L199.868 122.866C194.935 132.332 180.535 145.266 177.735 142.466C177.202 142.066 177.602 139.399 178.402 136.466C179.335 133.666 180.002 128.466 180.002 124.866C180.135 118.732 180.535 117.799 188.668 109.266C193.335 104.332 198.135 100.332 199.335 100.332C200.535 100.332 203.335 102.066 205.469 104.199C209.069 107.932 209.335 108.732 209.335 118.599C209.335 130.466 206.802 140.866 202.535 146.199C198.535 151.266 199.868 151.532 206.935 147.132C210.669 144.732 214.535 140.732 216.802 136.866C223.735 124.999 233.335 87.5324 233.335 71.9324C233.335 65.9324 233.735 64.1991 234.802 65.2657C237.069 67.5324 238.402 84.9991 237.202 94.9991C236.269 103.266 236.402 104.066 241.069 113.532L246.002 123.532V142.599C246.002 153.132 246.269 161.666 246.402 161.666C247.869 161.666 252.669 154.466 256.402 146.999C260.535 138.599 260.669 137.932 260.535 120.999C260.535 104.199 260.269 103.132 255.069 88.3324C248.669 70.0657 243.735 58.9991 239.869 53.5324C238.269 51.2657 237.469 49.1324 237.869 48.5991C239.469 47.1324 244.935 54.0657 251.869 66.3324C259.335 79.3991 260.935 83.9324 265.602 104.599C267.202 112.199 269.335 118.866 270.135 119.666C272.669 121.932 276.802 128.866 278.935 134.332C282.002 141.932 286.802 171.799 286.935 183.666C287.069 189.132 287.335 193.399 287.602 193.132C287.869 192.866 289.202 188.466 290.669 183.266C293.869 171.532 294.402 137.132 291.469 118.332C288.002 95.2657 275.735 66.3324 261.469 47.2657C251.335 33.9324 226.535 10.0657 217.869 5.53241C209.735 1.13241 205.335 -0.33426 205.335 1.53241ZM60.8018 28.3324C58.9352 30.7324 56.9352 34.8657 56.5352 37.6657C55.8685 41.3991 54.4018 43.7991 50.6685 46.8657C45.2018 51.1324 34.6685 68.1991 30.4018 79.2657C29.0685 82.9991 26.2685 92.4657 24.4018 100.199C21.8685 110.732 19.7352 116.199 16.0018 121.932C13.2018 126.199 10.5352 131.399 10.0018 133.666C8.53516 140.466 6.66849 139.532 6.66849 132.066C6.66849 115.132 15.4685 86.5991 26.9352 66.3324C34.2685 53.2657 41.0685 44.5991 52.9352 33.1324C63.3352 23.1324 67.3352 20.5991 60.8018 28.3324ZM243.602 35.2657C261.469 53.6657 272.269 71.3991 280.669 96.7324C285.335 110.866 288.669 128.999 287.735 135.666C287.202 139.532 287.069 139.399 284.135 132.999C282.535 129.266 279.335 123.532 277.202 120.199C274.669 116.066 271.869 108.332 269.202 97.5324C264.402 77.5324 254.535 57.5324 245.202 48.1991C241.335 44.4657 238.669 40.4657 238.002 37.5324C237.469 34.9991 235.335 30.7324 233.202 27.9324C226.135 19.1324 231.202 22.5991 243.602 35.2657ZM228.002 77.1324C226.269 90.0657 219.602 117.532 217.069 122.066C215.469 124.732 215.202 124.066 214.669 116.066C213.869 106.066 211.069 100.999 204.135 97.3991C201.069 95.7991 198.668 95.5324 195.868 96.3324L192.002 97.5324V86.1991C192.002 80.0657 192.135 74.5991 192.402 74.0657C192.535 73.6657 196.402 73.3991 200.935 73.5324C210.669 73.9324 218.002 72.0657 224.135 67.9324C226.669 66.1991 228.935 64.8657 229.202 65.1324C229.335 65.2657 228.935 70.7324 228.002 77.1324ZM92.1352 73.6657H102.268V85.3991V97.2657L96.1352 96.7324C89.6018 96.1991 87.8685 97.1324 82.9352 103.532C80.8018 106.199 80.0018 109.132 80.0018 113.799C80.0018 124.066 78.6685 125.666 75.8685 118.332C72.5352 109.532 66.9352 85.2657 65.8685 74.5991L65.0685 65.6657L73.4685 69.6657C80.6685 72.9991 83.6018 73.6657 92.1352 73.6657ZM250.269 90.5991C254.802 102.866 255.069 104.732 255.202 119.932C255.335 131.266 254.802 136.732 253.735 137.799C252.269 139.132 252.002 138.466 252.002 134.199C252.002 127.932 248.935 116.999 244.802 108.332C242.402 103.132 242.002 100.466 242.402 87.6657C242.935 70.9991 243.069 71.1324 250.269 90.5991ZM48.0018 112.599C45.3352 118.199 43.4685 124.866 43.0685 129.799C41.3352 147.799 37.8685 134.732 38.9352 114.866C39.4685 105.799 40.8018 99.9324 44.8018 88.7324L50.0018 74.3324L51.0685 88.8657C52.1352 103.399 52.1352 103.399 48.0018 112.599ZM143.868 89.1324C146.668 87.5324 147.735 87.6657 150.402 89.3991C153.335 91.2657 153.868 91.2657 157.468 89.1324C159.602 87.9324 161.335 87.3991 161.335 88.1991C161.335 91.3991 159.468 93.6657 156.802 93.6657C155.068 93.6657 152.402 95.1324 150.668 96.9991L147.468 100.332L144.135 97.1324C142.268 95.3991 139.202 93.6657 137.335 93.3991C135.068 93.1324 133.868 92.0657 133.602 90.0657C133.202 87.2657 133.335 87.1324 136.802 88.9991C139.868 90.5991 140.935 90.5991 143.868 89.1324ZM125.202 131.399C126.935 134.599 138.268 142.999 140.935 142.999C141.735 142.999 142.668 144.332 143.202 145.932C145.202 153.399 143.068 156.466 140.268 150.332C139.468 148.466 138.002 146.999 137.202 146.999C132.402 146.999 120.002 134.599 120.002 129.666C120.002 127.132 123.468 128.332 125.202 131.399ZM173.735 131.266C172.668 135.532 165.602 142.732 159.468 145.932C156.668 147.399 154.002 149.666 153.735 151.132C152.535 155.266 150.668 154.066 150.668 148.999C150.668 144.866 151.202 144.066 157.068 141.132C160.668 139.266 165.335 135.666 167.468 133.132C172.002 127.799 174.802 126.999 173.735 131.266ZM150.668 134.332C154.402 138.866 148.268 143.532 144.002 139.666C141.468 137.399 141.468 137.132 143.468 134.732C146.268 131.799 148.402 131.666 150.668 134.332ZM130.002 149.266C134.002 152.066 137.335 154.866 137.335 155.399C137.335 156.866 120.802 147.532 120.268 145.666C119.335 143.132 122.535 144.332 130.002 149.266ZM173.335 146.332C171.468 148.599 157.335 156.732 156.535 155.932C155.868 155.266 157.868 153.532 165.468 148.332C171.868 144.066 176.135 142.866 173.335 146.332ZM149.202 158.332C150.535 165.399 150.002 168.332 147.335 168.332C144.935 168.332 144.002 165.266 144.802 159.399C146.402 148.732 147.335 148.466 149.202 158.332ZM111.602 170.732C105.735 176.866 101.202 188.599 100.402 199.932L99.6018 210.066L96.5352 206.599C90.0018 198.999 80.6685 166.999 84.9352 166.999C85.7352 166.999 88.1352 167.932 90.1352 168.999C95.4685 171.799 105.202 171.532 110.002 168.466C115.335 165.266 116.002 166.199 111.602 170.732ZM182.935 167.932C186.535 171.132 198.535 171.799 203.735 169.132C210.269 165.666 211.069 166.199 210.135 173.266C208.535 184.599 199.868 206.599 196.135 208.866C194.935 209.666 193.335 202.332 193.335 195.399C193.335 188.732 188.135 176.599 183.068 170.866C178.402 165.666 178.268 163.666 182.935 167.932ZM149.335 180.599C150.135 183.799 152.402 189.532 154.268 193.399L157.735 200.332L153.468 226.066C148.802 252.866 147.602 257.399 146.135 252.866C144.535 247.799 137.335 206.332 137.335 202.332C137.335 200.199 139.202 194.732 141.335 190.466C143.602 186.199 145.335 181.266 145.335 179.666C145.335 177.132 146.268 174.999 147.468 174.999C147.735 174.999 148.535 177.532 149.335 180.599Z" fill="white"/>
<path d="M123.736 99.9321C119.336 104.999 118.536 107.799 121.203 110.199C124.536 113.265 125.336 112.865 124.536 108.465C124.136 106.332 124.403 103.399 125.336 101.665C127.336 97.9321 126.403 96.9988 123.736 99.9321Z" fill="white"/>
<path d="M168.67 100.332C169.203 102.199 169.47 106.066 169.337 108.999C169.203 114.199 169.203 114.199 171.87 111.666C175.603 108.466 175.337 105.799 171.203 100.999C167.87 97.1323 167.87 97.1323 168.67 100.332Z" fill="white"/>
</svg>
