<svg width="189" height="189" viewBox="0 0 189 189" fill="none" xmlns="http://www.w3.org/2000/svg">
<path d="M100.475 96.3039L96.8373 93.4066L99.1293 90.5306L102.005 92.8213L151.763 33.3266L153.687 32.9226L153.723 34.8879L106.84 96.6746L109.715 98.9653L107.424 101.841L103.787 98.9439L100.071 106.905L110.115 104.539L162.929 27.1519L164.469 19.3906L157.248 22.6253L93.6079 91.3853L93.5439 101.705L100.475 96.3039Z" fill="white"/>
<mask id="mask0_1350_1142" style="mask-type:luminance" maskUnits="userSpaceOnUse" x="0" y="0" width="189" height="189">
<path d="M0 -0.000395637H188.976V188.976H0V-0.000395637Z" fill="white"/>
</mask>
<g mask="url(#mask0_1350_1142)">
<path d="M88.8939 114.237L89.2366 122.081L81.3939 123.649L81.1713 115.654L88.8939 114.237ZM75.8819 109.468L79.0646 109.109C79.0646 109.109 80.2673 106.432 84.0926 106.564C84.0926 106.564 88.3953 106.381 90.0459 108.209C90.4033 108.605 90.4766 109.185 90.3433 109.702L89.7633 110.7L89.0379 111.313L78.9859 112.701L75.1766 111.84L77.1686 115.105L77.8873 124.866L73.7779 130.022L73.5166 133.534L76.8819 132.496L80.9899 127.34L90.6659 125.861L94.2939 127.073L92.6033 123.552L91.7126 113.444L92.1486 112.6L92.9913 111.812C93.4646 111.566 94.0459 111.509 94.5126 111.769C96.6619 112.969 97.4459 117.204 97.4459 117.204C98.4286 120.904 96.0873 122.673 96.0873 122.673L96.4473 125.856C98.7326 126.226 100.041 125.052 100.75 123.94C101.327 123.036 101.571 121.961 101.593 120.888C101.721 114.458 97.2313 108.558 97.2313 108.558L96.8739 105.456L98.6193 102.032L95.6713 104.497L92.5673 104.842C92.5673 104.842 85.8139 101.784 79.5753 103.344C78.5339 103.604 77.5419 104.082 76.7886 104.848C75.8633 105.786 75.0099 107.324 75.8819 109.468Z" fill="white"/>
<path d="M55.0361 149.384L56.3655 155.057L62.1935 155.088L61.9801 151.235L69.9855 141.021L73.6415 139.941L74.6921 136.785L70.8748 136.849L70.0855 133.115L67.2441 134.843L67.0081 138.648L58.8388 148.732L55.0361 149.384Z" fill="white"/>
<path d="M81.6075 99.1601L72.7715 81.9415C72.8075 82.0535 74.8862 100.036 74.8862 100.036L81.6075 99.1601Z" fill="white"/>
<path d="M72.2776 110.46L70.915 105.594C70.915 105.594 58.867 99.0268 58.7656 98.9455L67.123 110.507L72.2776 110.46Z" fill="white"/>
<path d="M57.6865 114.536L64.1639 119.697L64.3452 114.359C64.3452 114.359 57.8572 114.631 57.6865 114.536Z" fill="white"/>
<path d="M65.3261 125.276L58.5527 130.18L67.1234 129.949L65.3261 125.276Z" fill="white"/>
<path d="M71.6218 128.57L71.5858 114.064C71.5858 114.064 68.8738 113.734 68.8564 113.809L68.8578 121.992C68.9471 124.296 71.6218 128.57 71.6218 128.57Z" fill="white"/>
<path d="M56.7387 158.638L56.0574 155.446L52.7947 155.495L51.408 149.673L46.8174 154.253L48.7947 154.958L51.5614 157.634L51.72 159.574L47.8347 160.398C47.8347 160.398 47.676 162.122 47.76 162.189C47.8427 162.254 49.4787 163.703 49.4787 163.703C49.4787 163.703 51.2547 164.974 51.3387 165.039C51.4214 165.106 53.0667 164.566 53.0667 164.566L53.0014 160.595L54.9294 160.317L58.156 162.415L59.2854 164.186L62.724 158.69L56.7387 158.638Z" fill="white"/>
<path d="M123.973 122.741L105.217 117.973L105.863 124.72C105.863 124.72 123.855 122.732 123.973 122.741Z" fill="white"/>
<path d="M110.526 140.19C110.425 140.109 101.333 129.833 101.333 129.833L96.2852 129.59L97.3905 134.625L110.526 140.19Z" fill="white"/>
<path d="M89.0938 139.562L95.5711 144.724C95.4404 144.578 94.2564 138.193 94.2564 138.193L89.0938 139.562Z" fill="white"/>
<path d="M78.4395 138.965L80.1275 147.372L83.3955 139.675L78.4395 138.965Z" fill="white"/>
<path d="M78.7793 134.274C78.7793 134.274 83.5433 135.926 85.8086 135.499L93.786 133.674C93.854 133.64 92.9273 131.07 92.9273 131.07L78.7793 134.274Z" fill="white"/>
<path d="M67.7249 66.8092C67.7249 66.8092 41.1622 95.4612 51.8315 131.02C52.2075 132.269 52.4715 133.548 52.5515 134.851C52.7449 138.03 52.7969 143.976 50.8395 147.062C50.8395 147.062 37.9649 145.452 29.0155 130.313C29.0155 130.313 22.7969 119.785 24.9662 112.481C24.9662 112.481 29.1275 127.84 43.8942 136.724C43.8942 136.724 20.3062 98.0252 35.4129 88.5238C35.4129 88.5238 34.9155 109.667 43.1222 119.973C43.1222 119.973 40.4195 97.0785 52.1649 76.6958C52.1649 76.6958 58.1382 69.4025 67.7249 66.8092Z" fill="white"/>
<path d="M67.1673 159.813L75.5499 153.627C76.1019 153.219 76.7393 152.937 77.4126 152.803L79.6406 152.359C79.6406 152.359 130.451 151.02 150.325 104.705C150.325 104.705 153.059 122.649 144.334 131.097C144.334 131.097 127.189 146.889 106.221 152.436C106.221 152.436 129.477 156.16 144.015 141.287C144.015 141.287 140.341 154.588 127.195 158.375C127.195 158.375 107.463 161.432 96.3726 158.868C96.3726 158.868 95.3699 162.528 119.211 166.489C119.211 166.489 109.566 170.847 99.2593 169.219C97.8993 169.004 96.5993 168.516 95.4086 167.821C92.3659 166.047 85.3966 161.749 83.0406 161.839C83.0406 161.839 71.7486 160.185 67.3526 160.361C67.0526 160.375 66.9246 159.992 67.1673 159.813Z" fill="white"/>
<path d="M93.7219 40.7042C93.2606 40.6456 112.79 36.7576 126.397 47.8456L122.538 53.5176C122.538 53.5176 107.37 42.4216 93.7219 40.7042Z" fill="white"/>
<path d="M96.4941 51.8246C96.4941 51.8246 111.357 56.1592 115.266 61.5032C115.266 61.5032 113.229 65.4059 111.769 65.8926C111.769 65.8926 105.418 57.7992 96.4941 51.8246Z" fill="white"/>
<path d="M138.502 106.257C138.526 106.195 138.548 106.132 138.569 106.069C141.15 98.4199 128.564 84.5359 128.564 84.5359L133.032 79.0412C136.458 80.5505 141.426 93.9839 141.426 93.9839C147.144 87.1425 137.801 71.1505 137.801 71.1505L141.642 65.6639C143.202 66.6705 147.749 76.9385 147.749 76.9385C154.677 97.8932 135.584 118.033 135.584 118.033C135.584 118.033 138.442 106.888 125.686 100.161L124.537 94.8159C124.537 94.8159 132.18 95.2972 136.294 102.228" fill="white"/>
</g>
</svg>
