<svg width="294" height="294" viewBox="0 0 294 294" fill="none" xmlns="http://www.w3.org/2000/svg">
<path d="M43.6 43.734L0 87.334V147.334V207.334L43.0667 250.401L86 293.334H147.333H208.667L251.067 250.934L293.333 208.667V147.334V86.0006L250.267 42.934L207.333 0.000635743H147.333H87.3333L43.6 43.734ZM247.067 47.6006L288 88.6673V147.334V206.001L246.933 247.067L205.867 288.001H147.333H88.6667L47.7333 247.067L6.66667 206.001V146.667V87.334L47.0667 47.0673L87.3333 6.6673H146.667H206L247.067 47.6006Z" fill="white"/>
<path d="M88.4 16.0006C85.6 18.0006 67.6 35.4673 48.5333 54.8006L13.7333 90.0006L12.8 99.3339C11.7333 111.467 11.7333 180.534 12.8 194.134L13.7333 204.667L51.8667 242.801L90 281.067L102.8 282.001C109.733 282.534 135.067 282.667 159.067 282.534L202.667 282.001L242 242.667C281.2 203.467 281.2 203.334 281.467 197.334C281.867 190.001 281.867 103.867 281.467 97.3339C281.333 94.8006 279.867 90.6673 278 88.0006C273.067 80.8006 206.267 14.9339 202.533 13.4673C200.8 12.8006 175.867 12.2673 146.4 12.2673L93.4667 12.1339L88.4 16.0006ZM98.2667 21.6006C99.6 26.0006 99.4667 26.1339 84.8 40.9339C73.2 52.8006 70.4 56.2673 71.7333 57.6006C73.0667 58.9339 76.4 56.2673 87.7333 44.9339L102 30.6673H122.4C141.867 30.6673 142.667 30.5339 142.667 28.0006C142.667 25.3339 142 25.2006 123.067 25.4673C105.067 25.6006 103.333 25.3339 102.533 23.2006C100.133 17.2006 98.9333 17.3339 147.333 17.3339H193.333L192.533 20.9339C192 23.0673 191.467 24.9339 191.2 25.2006C191.067 25.3339 182.133 25.4673 171.467 25.4673C152.667 25.2006 152 25.3339 152 28.0006C152 30.5339 152.8 30.6673 172.267 30.6673H192.667L206.933 44.9339C218.267 56.2673 221.6 58.9339 222.933 57.6006C224.267 56.2673 221.467 52.8006 209.733 40.9339C195.333 26.4006 195.067 25.8673 196.267 21.6006C196.933 19.3339 198.133 17.3339 199.067 17.3339C201.067 17.3339 277.333 93.4673 277.333 95.4673C277.333 96.2673 275.333 97.6006 273.067 98.2673C268.667 99.6006 268.533 99.4673 253.733 84.8006C241.867 73.2006 238.4 70.4006 237.067 71.7339C235.733 73.0673 238.4 76.4006 249.733 87.7339L264 102.001V122.401C264 141.867 264.133 142.667 266.667 142.667C269.333 142.667 269.467 142.001 269.2 123.067C269.067 105.067 269.333 103.334 271.467 102.534C277.467 100.134 277.333 98.9339 277.333 147.334V193.334L273.733 192.534C271.6 192.001 269.733 191.467 269.467 191.201C269.333 191.067 269.2 182.134 269.2 171.467C269.467 152.667 269.333 152.001 266.667 152.001C264.133 152.001 264 152.801 264 172.267V192.667L249.733 206.934C238.4 218.267 235.733 221.601 237.067 222.934C238.4 224.267 241.867 221.467 253.733 209.734C268.267 195.334 268.8 195.067 273.067 196.267C275.333 196.934 277.333 198.134 277.333 199.067C277.333 201.201 201.2 277.334 199.067 277.334C198.133 277.334 196.933 275.334 196.267 272.934C195.067 268.801 195.333 268.267 209.733 253.734C221.467 241.867 224.267 238.401 222.933 237.067C221.6 235.734 218.267 238.401 206.933 249.734L192.667 264.001H172.267C152.933 264.001 152 264.134 152 266.667C152 269.201 152.933 269.334 172 269.334C188.4 269.334 192 269.734 192 271.201C192 272.267 192.4 274.001 192.8 275.201C193.6 277.067 189.067 277.334 147.467 277.334C122.133 277.334 101.333 276.934 101.333 276.267C101.333 275.734 101.733 274.001 102.133 272.401C102.933 269.334 103.333 269.334 122.8 269.334C141.733 269.334 142.667 269.201 142.667 266.667C142.667 264.134 141.733 264.001 122.4 264.001H102L87.7333 249.734C76.4 238.401 73.0667 235.734 71.7333 237.067C70.4 238.401 73.2 241.867 84.8 253.734C99.4667 268.534 99.6 268.667 98.2667 272.934C97.6 275.334 96.2667 277.334 95.4667 277.334C93.4667 277.334 17.3333 201.067 17.3333 199.067C17.3333 198.134 19.3333 196.934 21.7333 196.267C25.8667 195.067 26.4 195.334 40.6667 209.467C52.4 221.067 55.7333 223.734 57.0667 222.401C58.4 221.067 55.7333 217.867 44.5333 206.534L30.4 192.401L30.5333 172.134C30.8 152.667 30.6667 152.001 28 152.001C25.4667 152.001 25.3333 152.801 25.3333 172.001C25.3333 188.401 24.9333 192.001 23.4667 192.001C22.4 192.001 20.6667 192.401 19.4667 192.801C17.6 193.601 17.3333 189.067 17.3333 147.467C17.3333 122.134 17.7333 101.334 18.4 101.334C18.9333 101.334 20.6667 101.734 22.4 102.134C25.3333 102.934 25.3333 103.334 25.3333 122.801C25.3333 141.867 25.4667 142.667 28 142.667C30.6667 142.667 30.8 142.001 30.5333 122.534L30.4 102.267L44.8 87.8673C56.2667 76.4006 58.9333 73.0673 57.6 71.7339C56.2667 70.4006 52.8 73.2006 40.9333 84.8006C26.1333 99.4673 26 99.6006 21.7333 98.2673C19.3333 97.6006 17.3333 96.2673 17.3333 95.4673C17.3333 93.6006 93.6 17.3339 95.4667 17.3339C96.2667 17.3339 97.6 19.3339 98.2667 21.6006Z" fill="white"/>
<path d="M105.201 72.2676C100.534 78.4009 96.1344 83.7342 95.4677 84.2676C92.6677 86.2676 87.8677 85.3342 80.2677 81.4676C69.4677 76.0009 67.7344 77.0676 64.001 90.9342C58.001 112.934 55.7344 127.068 55.7344 141.334C55.7344 158.134 57.8677 164.934 65.4677 172.801C70.2677 177.734 70.801 178.934 71.601 187.468C72.2677 195.734 72.9344 197.201 77.201 201.468L82.001 206.268L95.3344 205.601C106.668 205.068 109.068 205.334 110.534 207.201C112.001 208.934 114.934 209.334 124.668 209.334C134.001 209.334 137.468 209.868 138.668 211.334C139.734 212.668 142.668 213.334 146.668 213.334C152.534 213.334 153.868 214.001 164.268 222.268L175.334 231.334L193.201 231.734L211.068 232.268L218.134 227.334C232.668 217.334 244.668 200.534 243.734 191.601C243.334 187.601 242.934 187.334 237.601 186.934C232.668 186.534 232.001 186.134 232.801 184.268C234.801 179.734 234.934 171.601 233.468 133.334L232.001 94.2676L220.668 79.0676C212.668 68.4009 208.534 64.0009 206.534 64.0009C205.068 64.0009 200.001 66.6676 195.468 70.0009C190.801 73.3342 186.001 76.0009 184.934 76.0009C183.734 76.0009 178.401 72.6676 173.068 68.6676C167.734 64.6676 162.134 61.3342 160.668 61.3342C159.068 61.3342 154.801 64.5342 150.668 68.6676C145.868 73.4676 142.268 76.0009 140.268 76.0009C138.401 76.0009 133.068 72.8009 127.601 68.6676C122.401 64.6676 117.201 61.3342 115.868 61.3342C114.401 61.3342 110.134 65.7342 105.201 72.2676ZM119.734 69.6009C120.934 70.8009 119.868 72.5342 115.601 77.2009C108.001 85.3342 102.268 95.2009 103.201 98.4009C104.268 101.601 111.868 109.334 115.334 110.668C117.068 111.334 119.068 110.801 121.201 109.201C124.268 106.801 124.401 106.801 127.601 109.334C129.468 110.801 131.868 112.001 132.801 112.001C134.268 112.001 134.134 113.068 132.401 116.801C130.134 121.334 129.868 121.468 124.401 120.668C119.868 120.001 118.268 120.401 116.134 122.534C112.801 125.868 112.534 129.601 115.334 133.868C117.201 136.668 117.068 137.068 114.668 139.334C113.201 140.668 111.734 141.468 111.468 141.201C111.068 140.801 110.134 135.601 109.468 129.468C108.268 120.134 107.468 117.734 104.001 113.868C101.601 110.934 100.001 107.734 100.001 105.334C100.001 102.534 98.6677 100.401 94.6677 96.9342C88.5344 91.7342 88.1344 90.6676 92.401 90.6676C96.2677 90.6676 100.801 86.6676 108.668 76.2676C115.201 67.8676 116.934 66.8009 119.734 69.6009ZM164.534 68.8009C167.601 70.0009 167.201 71.7342 162.801 75.4676C157.468 79.8676 150.668 90.8009 150.668 94.9342C150.668 96.9342 152.534 100.268 155.468 103.201C159.734 107.468 160.934 108.134 164.401 107.468C167.734 106.801 169.068 107.334 171.468 110.001C176.801 116.268 172.001 122.934 166.001 117.334C162.134 113.734 158.668 114.268 156.134 118.934C154.268 122.134 154.401 122.934 157.334 129.334C160.401 136.001 160.401 136.268 158.134 140.134C156.134 143.468 155.868 146.801 156.134 161.334C156.401 173.601 156.134 179.068 154.934 180.268C154.001 181.201 153.334 181.601 153.201 181.334C153.201 180.934 152.401 164.401 151.601 144.534C150.134 112.001 149.734 108.001 147.468 105.468C145.868 103.734 144.001 102.934 142.401 103.468C140.268 104.134 140.001 103.334 140.001 98.4009C140.001 94.0009 138.934 90.9342 135.468 85.8676L130.934 79.0676L136.001 80.4009C142.401 82.1342 147.201 80.2676 154.134 73.2009C159.201 68.0009 160.668 67.3342 164.534 68.8009ZM208.934 72.9342C209.334 73.7342 207.868 75.3342 205.734 76.4009C203.601 77.6009 198.801 81.4676 195.068 85.2009C191.201 88.9342 187.601 92.0009 187.068 92.0009C186.534 91.8676 184.001 89.2009 181.468 85.8676L177.068 79.7342L182.268 80.5342C186.801 81.3342 188.401 80.8009 195.334 76.1342C203.201 70.9342 208.001 69.7342 208.934 72.9342ZM128.134 85.0676C135.601 94.2676 136.668 97.3342 134.534 103.601L132.934 108.534L130.534 105.468C129.068 103.734 128.001 101.601 128.001 100.668C128.001 99.0676 125.201 97.3342 122.801 97.3342C122.268 97.3342 121.068 99.8676 120.134 102.801L118.401 108.401L112.668 102.668L106.934 97.0676L113.734 87.2009C117.601 81.8676 120.934 77.4676 121.334 77.3342C121.734 77.3342 124.801 80.8009 128.134 85.0676ZM173.468 84.2676C185.601 98.6676 185.068 96.8009 179.201 102.801C176.401 105.601 173.734 108.001 173.334 108.001C172.934 108.001 172.934 105.068 173.068 101.468C173.468 95.8676 173.201 94.6676 170.801 93.3342C167.068 91.4676 165.334 92.6676 165.201 97.0676C165.068 104.934 163.601 105.601 158.934 100.001L154.534 94.8009L160.268 86.1342C163.468 81.3342 166.401 77.3342 166.801 77.3342C167.201 77.3342 170.268 80.4009 173.468 84.2676ZM221.334 100.401C221.334 106.001 218.934 110.668 216.134 110.668C215.601 110.668 214.534 107.201 213.868 103.068C213.068 97.6009 212.001 95.2009 210.401 94.9342C208.801 94.6676 208.001 95.8676 207.334 100.268C206.801 103.468 206.134 106.401 205.734 106.934C204.668 108.801 199.201 105.068 195.601 99.8676L192.001 94.6676L196.934 90.2676C199.734 88.0009 203.734 84.4009 205.868 82.5342L209.868 79.0676L215.601 86.6676C220.401 93.0676 221.334 95.3342 221.334 100.401ZM77.3344 86.2676C77.3344 86.8009 76.001 88.5342 74.401 90.2676C70.801 94.1342 69.3344 108.934 72.001 114.001C74.2677 118.268 79.3344 120.401 82.9344 118.534C84.9344 117.468 86.401 117.468 88.801 118.801C93.601 121.334 92.6677 122.801 86.9344 121.868C80.2677 120.801 77.7344 123.468 79.7344 129.334C81.0677 132.801 80.9344 133.334 78.6677 133.334C77.3344 133.334 74.9344 134.934 73.3344 136.934C70.9344 140.134 70.5344 141.734 71.3344 147.201C73.201 161.734 82.001 173.601 95.8677 180.668C103.468 184.401 108.268 184.934 110.668 182.001C112.934 179.334 114.668 179.468 114.668 182.401C114.668 185.601 119.334 189.868 125.868 192.534C134.268 196.001 137.601 195.334 145.201 188.534C150.801 183.601 152.001 182.934 152.001 185.068C152.001 189.468 157.068 194.534 163.068 196.001C172.534 198.534 172.401 198.134 168.401 204.134C165.334 208.934 165.068 210.001 166.401 213.601L167.868 217.601L164.268 215.201C157.201 210.401 151.334 208.001 147.334 208.001C145.068 208.001 142.001 207.068 140.534 206.001C138.801 204.668 134.668 204.134 127.868 204.001C122.268 204.001 115.068 203.068 112.001 202.001C108.668 200.801 101.601 200.001 94.5344 200.001C83.4677 200.001 82.6677 199.868 80.1344 196.534C78.5344 194.534 77.3344 191.468 77.3344 189.734C77.3344 182.934 74.2677 174.801 69.3344 168.801C61.8677 159.734 60.9344 155.734 61.7344 135.468C62.401 118.934 66.9344 95.2009 70.801 87.6009C72.001 85.4676 77.3344 84.2676 77.3344 86.2676ZM86.801 97.7342L95.3344 102.801L95.601 110.134C95.7344 114.134 95.3344 117.334 94.6677 117.334C94.001 117.334 91.601 115.068 89.3344 112.268C86.9344 109.601 84.801 108.001 84.5344 108.801C84.1344 109.601 83.0677 111.334 82.1344 112.668C79.7344 116.134 74.1344 113.068 75.201 108.934C75.601 107.334 76.001 102.801 76.001 98.9342C76.001 94.9342 76.5344 92.0009 77.0677 92.2676C77.7344 92.4009 82.001 94.9342 86.801 97.7342ZM201.734 111.334C204.001 112.001 206.134 111.601 207.334 110.668C209.068 109.201 210.001 109.468 212.401 111.868C216.401 115.601 218.401 115.468 222.801 111.201L226.534 107.601L227.201 110.801C228.534 117.334 229.334 169.334 228.134 169.334C227.468 169.334 226.534 168.268 226.134 166.934C225.468 164.934 222.668 132.001 222.668 126.401C222.668 125.201 221.201 122.534 219.468 120.401C216.268 116.668 216.268 116.668 213.468 119.201C210.668 121.734 210.534 121.734 206.534 118.001C203.201 114.668 202.134 114.268 200.001 115.734C197.868 117.068 197.334 116.801 196.668 114.668C196.268 113.201 193.468 110.001 190.668 107.601C186.668 104.268 185.734 102.801 186.934 101.601C188.134 100.401 189.601 101.334 193.334 105.201C195.868 108.134 199.734 110.934 201.734 111.334ZM146.534 159.601C146.668 170.534 147.201 177.334 148.001 177.601C148.801 177.868 146.134 180.934 142.134 184.268L134.934 190.668L129.068 188.134C126.001 186.801 122.268 185.334 120.801 184.801C118.934 184.134 118.668 183.601 119.868 182.134C120.934 180.801 120.934 179.334 120.001 176.801C118.801 173.468 115.734 141.201 116.668 140.268C116.801 140.001 120.668 143.868 125.201 148.801C130.401 154.534 133.468 157.068 134.001 155.868C135.868 150.401 141.068 136.268 142.134 134.001C142.934 132.001 141.868 132.401 137.601 135.734L132.001 140.268L124.134 134.401C117.068 129.201 116.534 128.268 118.001 126.268C119.734 123.868 120.001 124.001 125.334 126.668C128.401 128.268 131.468 129.068 132.001 128.401C132.534 127.868 135.734 122.268 138.801 116.134L144.668 104.934L145.468 123.468C146.001 133.734 146.401 149.868 146.534 159.601ZM189.068 112.401C192.001 115.468 192.001 115.734 190.668 140.801C188.268 184.934 188.934 181.734 180.534 187.734L173.201 192.934L165.201 190.934C158.534 189.334 157.334 188.534 157.334 186.001C157.334 183.734 158.534 182.534 161.334 181.468C165.868 180.001 166.934 175.334 163.068 174.134C160.934 173.468 160.668 171.334 160.534 156.668C160.534 147.468 160.934 140.401 161.468 140.934C161.868 141.601 164.801 146.134 167.734 151.068L173.201 160.268L178.668 149.334C182.668 141.468 183.734 137.868 182.801 136.934C181.734 135.868 180.001 136.801 176.534 140.134C173.868 142.534 171.468 144.001 171.068 143.201C170.801 142.401 167.868 137.468 164.668 132.134C159.601 123.868 158.134 118.534 161.201 118.668C161.601 118.801 164.401 121.734 167.201 125.468C170.134 129.068 172.934 131.601 173.468 131.068C173.868 130.401 175.334 126.801 176.668 122.934C178.668 116.668 183.334 109.468 185.468 109.334C185.868 109.334 187.468 110.668 189.068 112.401ZM104.001 122.934C104.001 126.801 105.201 141.068 106.534 154.668C108.001 168.268 108.934 179.468 108.801 179.734C107.868 180.668 96.401 175.601 91.7344 172.134C84.6677 166.934 80.401 160.801 78.001 152.801C76.001 146.001 75.3344 137.334 76.801 137.334C77.3344 137.334 81.4677 140.668 86.001 144.668C90.6677 148.668 94.801 152.001 95.201 152.001C95.601 152.001 96.001 149.601 96.001 146.534C96.001 141.868 95.0677 140.134 88.6677 133.468C84.6677 129.201 81.3344 125.334 81.3344 124.801C81.3344 124.401 84.401 125.468 88.001 127.334L94.6677 130.668L98.2677 123.334C100.268 119.334 102.401 116.001 102.934 116.001C103.468 116.001 104.001 119.201 104.001 122.934ZM206.801 125.601L211.068 132.668L214.134 126.001C216.534 120.668 217.201 120.001 217.201 122.668C217.334 124.534 218.001 136.668 218.934 149.601L220.401 173.334H223.868C227.201 173.468 227.068 173.734 220.934 179.334C214.934 184.934 213.868 185.334 207.201 185.334C200.001 185.334 198.668 184.534 201.468 181.734C202.534 180.668 202.401 179.468 200.934 177.201C199.734 175.201 198.668 168.668 198.134 160.668C197.601 153.334 196.934 144.934 196.534 142.001L195.734 136.668L200.934 144.268C203.734 148.534 206.268 152.001 206.668 152.001C207.068 151.868 208.934 149.734 211.068 147.068L214.668 142.134L211.068 140.668C208.268 139.468 206.401 136.801 203.601 130.134C201.601 125.334 200.001 120.668 200.001 120.001C200.001 116.801 202.801 119.201 206.801 125.601ZM196.534 184.801C197.068 186.934 198.934 188.801 201.334 189.734C203.601 190.534 205.334 191.734 205.334 192.268C205.334 194.268 200.001 196.001 193.468 196.001C182.268 196.001 181.734 195.201 188.268 188.001C191.468 184.534 194.401 181.601 194.801 181.468C195.334 181.334 196.134 182.934 196.534 184.801ZM233.068 190.001C238.534 193.468 238.401 196.668 232.534 205.468C226.134 215.068 210.401 227.734 206.401 226.401C205.734 226.134 208.134 224.001 211.734 221.734C223.201 214.668 227.601 200.934 221.068 192.668L218.134 188.934L222.668 184.934L227.201 180.801L228.001 184.134C228.401 185.868 230.668 188.534 233.068 190.001ZM218.668 200.801C218.668 212.134 211.468 218.668 196.668 220.668L190.001 221.601L193.068 218.268C195.334 215.868 196.134 213.734 195.734 210.534L195.334 206.134L189.601 213.734C186.268 218.268 182.934 221.334 181.468 221.334C180.001 221.334 176.801 218.801 174.134 215.601L169.468 210.001L174.001 205.468L178.534 200.801L191.601 201.201C204.134 201.468 204.801 201.334 207.868 198.134C209.868 196.001 212.534 194.668 214.934 194.668C218.534 194.668 218.668 194.934 218.668 200.801Z" fill="white"/>
</svg>
