<svg width="109" height="26" viewBox="0 0 109 26" fill="none" xmlns="http://www.w3.org/2000/svg">
<path d="M4.98401 25.5549C3.73869 25.5549 2.78973 25.4042 2.13683 25.1028C1.49596 24.8014 1.06079 24.3088 0.831018 23.6247C0.613432 22.9408 0.504639 22.0307 0.504639 20.8947V3.40123C0.504639 3.06506 0.565131 2.81003 0.685962 2.63613C1.23007 1.871 1.99162 1.0653 2.97105 0.219038C3.15237 0.0799254 3.30947 0.010376 3.44249 0.010376C3.58769 0.010376 3.73869 0.0799254 3.89594 0.219038C4.42786 0.65957 4.87522 1.0827 5.23786 1.48844C5.60065 1.88261 5.915 2.26516 6.18103 2.63613C6.30186 2.82161 6.36235 3.07665 6.36235 3.40123V18.8253C6.36235 19.6021 6.50741 20.1585 6.79752 20.4946C7.08764 20.8309 7.63174 20.999 8.42971 20.999L13.9972 20.9816C14.2873 20.9816 14.505 21.0279 14.6499 21.1207C14.9644 21.3293 15.2908 21.5786 15.6292 21.8684C15.9678 22.1582 16.3246 22.506 16.6991 22.9119C16.8203 23.0625 16.8806 23.1842 16.8806 23.2769C16.8806 23.3814 16.8203 23.4973 16.6991 23.6247C16.3246 24.0306 15.9678 24.3782 15.6292 24.668C15.2908 24.958 14.9644 25.2071 14.6499 25.4157C14.4806 25.5086 14.263 25.5549 13.9972 25.5549H4.98401ZM30.0466 25.9897C27.5319 25.9897 25.3437 25.526 23.4819 24.5986C21.6199 23.6712 20.1752 22.2742 19.1476 20.4077C18.1319 18.5413 17.6242 16.2111 17.6242 13.4173C17.6242 8.97728 18.7546 5.66765 21.0155 3.48818C23.2762 1.29716 26.4257 0.201647 30.4638 0.201647C34.248 0.201647 37.2403 1.27398 39.4407 3.41859C41.641 5.55161 42.7413 8.71641 42.7413 12.9131C42.7413 15.8808 42.2274 18.3326 41.1998 20.2686C40.172 22.1931 38.7091 23.6305 36.8111 24.5812C34.913 25.5202 32.6581 25.9897 30.0466 25.9897ZM30.1555 21.2946C32.3317 21.2946 33.9457 20.5469 34.9976 19.0514C36.0495 17.556 36.5753 15.6142 36.5753 13.226C36.5753 10.4554 36.0797 8.37453 35.0884 6.9834C34.0967 5.59227 32.501 4.89663 30.3006 4.89663C25.9602 4.89663 23.7901 7.63838 23.7901 13.1217C23.7901 15.5677 24.3099 17.5444 25.3496 19.0514C26.4016 20.5469 28.0035 21.2946 30.1555 21.2946ZM61.1121 1.99272C61.777 2.88538 62.454 4.03885 63.1432 5.45308C63.8444 6.85578 64.5215 8.39768 65.1744 10.0786C65.8272 11.7595 66.4135 13.4811 66.9334 15.2432C67.4653 16.9937 67.9007 18.6805 68.2391 20.3034C68.5778 21.9264 68.7711 23.3696 68.8194 24.6333C68.8315 25.2478 68.5414 25.5549 67.949 25.5549H63.5604C62.992 25.5549 62.6958 25.2825 62.6718 24.7376C62.6233 23.4392 62.4057 21.8626 62.0189 20.0078H52.1171C51.7785 21.8163 51.585 23.3929 51.5369 24.7376C51.5125 25.2825 51.2043 25.5549 50.6118 25.5549H46.3139C46.0962 25.5549 45.915 25.4969 45.7698 25.381C45.6246 25.2536 45.5582 25.039 45.5704 24.7376C45.6308 23.4508 45.8242 21.9902 46.1506 20.3556C46.4892 18.7094 46.9245 17.0053 47.4562 15.2432C47.9883 13.4811 48.5807 11.7595 49.2336 10.0786C49.8865 8.3861 50.5635 6.83842 51.2647 5.43572C51.9659 4.03306 52.649 2.88538 53.314 1.99272C53.6647 1.51742 54.0333 1.16965 54.4202 0.949385C54.8192 0.729119 55.3089 0.618986 55.8892 0.618986H58.5006C59.0931 0.618986 59.5887 0.729119 59.9878 0.949385C60.3867 1.16965 60.7615 1.51742 61.1121 1.99272ZM57.0135 6.11385C56.2155 7.33122 55.484 8.786 54.8192 10.4785C54.1543 12.1712 53.58 13.91 53.0964 15.6954H60.9669C60.4592 13.91 59.8729 12.1712 59.2079 10.4785C58.543 8.786 57.8477 7.33122 57.1223 6.11385H57.0135ZM78.9388 24.6333C78.9388 24.9811 78.8602 25.2245 78.7031 25.3637C78.558 25.4911 78.304 25.5549 77.9415 25.5549H74.0787C73.716 25.5549 73.4559 25.4911 73.299 25.3637C73.1538 25.2245 73.0812 24.9811 73.0812 24.6333V3.40123C73.0812 3.06506 73.1417 2.81003 73.2626 2.63613C73.8067 1.871 74.5684 1.0653 75.5476 0.219038C75.729 0.0799254 75.8861 0.010376 76.0191 0.010376C76.1641 0.010376 76.3153 0.0799254 76.4724 0.219038C77.0044 0.65957 77.4518 1.0827 77.8145 1.48844C78.1771 1.88261 78.4914 2.26516 78.7575 2.63613C78.8783 2.82161 78.9388 3.07665 78.9388 3.40123V24.6333ZM90.2914 24.6333C90.2914 24.9811 90.2189 25.2245 90.0738 25.3637C89.9408 25.4911 89.699 25.5549 89.3484 25.5549H85.7033C85.3647 25.5549 85.1229 25.4911 84.9778 25.3637C84.8328 25.2245 84.7602 24.9811 84.7602 24.6333V2.60135C84.7602 1.91737 84.8994 1.4189 85.1773 1.10589C85.4554 0.781292 85.9449 0.618986 86.6463 0.618986H88.3329C88.9494 0.618986 89.5297 0.700139 90.0738 0.862445C90.63 1.01315 91.2163 1.36092 91.8328 1.90578C92.4616 2.45065 93.1869 3.29691 94.0091 4.44454C94.8432 5.58069 95.8468 7.13401 97.0195 9.10489C98.1446 10.9829 99.0452 12.4841 99.7215 13.6086C100.411 14.7331 100.943 15.591 101.318 16.1822C101.692 16.7734 101.97 17.1966 102.151 17.4517C102.345 17.7066 102.502 17.9154 102.623 18.0776V3.40123C102.623 3.06506 102.678 2.81003 102.786 2.63613C103.306 1.871 104.026 1.0653 104.944 0.219038C105.125 0.0799254 105.277 0.010376 105.397 0.010376C105.531 0.010376 105.675 0.0799254 105.833 0.219038C106.329 0.65957 106.745 1.0827 107.084 1.48844C107.435 1.88261 107.737 2.26516 107.991 2.63613C108.099 2.82161 108.154 3.07665 108.154 3.40123V24.1116C108.154 24.6333 108.052 25.0043 107.847 25.2245C107.64 25.4448 107.266 25.5549 106.722 25.5549H104.981C104.461 25.5549 103.929 25.4738 103.385 25.3114C102.841 25.1377 102.224 24.755 101.535 24.1638C100.847 23.5609 100.031 22.6277 99.0868 21.3642C98.1446 20.1005 97.0076 18.3733 95.6774 16.1822C94.5531 14.3158 93.6524 12.8319 92.9754 11.7306C92.3105 10.6293 91.8026 9.80038 91.452 9.24393C91.1014 8.6759 90.8476 8.28178 90.6903 8.06143C90.5332 7.82965 90.4002 7.65574 90.2914 7.53985V24.6333Z" fill="white"/>
</svg>
