<svg width="18" height="18" viewBox="0 0 18 18" fill="none" xmlns="http://www.w3.org/2000/svg">
<circle cx="9" cy="9" r="6" stroke="#BFBFBF"/>
<path d="M8.084 10.232H9.245C9.11 8.963 10.676 8.54 10.676 7.262C10.676 6.101 9.884 5.543 8.795 5.543C8.012 5.543 7.373 5.912 6.905 6.443L7.634 7.118C7.931 6.812 8.246 6.614 8.642 6.614C9.11 6.614 9.407 6.893 9.407 7.352C9.407 8.207 7.868 8.783 8.084 10.232ZM8.669 12.626C9.137 12.626 9.497 12.257 9.497 11.762C9.497 11.267 9.137 10.907 8.669 10.907C8.192 10.907 7.85 11.267 7.85 11.762C7.85 12.257 8.192 12.626 8.669 12.626Z" fill="#BFBFBF"/>
</svg>
