<svg width="15" height="15" viewBox="0 0 15 15" fill="none" xmlns="http://www.w3.org/2000/svg">
<path d="M12.7441 2.2559C12.5802 2.09205 12.3579 2 12.1262 2C11.8944 2 11.6721 2.09205 11.5082 2.2559L7.5 6.26414L3.49176 2.2559C3.32786 2.09205 3.10559 2 2.87383 2C2.64207 2 2.4198 2.09205 2.2559 2.2559C2.09205 2.4198 2 2.64207 2 2.87383C2 3.10559 2.09205 3.32786 2.2559 3.49176L6.26414 7.5L2.2559 11.5082C2.09205 11.6721 2 11.8944 2 12.1262C2 12.3579 2.09205 12.5802 2.2559 12.7441C2.4198 12.908 2.64207 13 2.87383 13C3.10559 13 3.32786 12.908 3.49176 12.7441L7.5 8.73586L11.5082 12.7441C11.6721 12.908 11.8944 13 12.1262 13C12.3579 13 12.5802 12.908 12.7441 12.7441C12.908 12.5802 13 12.3579 13 12.1262C13 11.8944 12.908 11.6721 12.7441 11.5082L8.73586 7.5L12.7441 3.49176C12.908 3.32786 13 3.10559 13 2.87383C13 2.64207 12.908 2.4198 12.7441 2.2559Z" fill="#DFDFDF"/>
</svg>
